<svg width="45" height="45" viewBox="0 0 45 45" fill="none" xmlns="http://www.w3.org/2000/svg">
<path d="M24 9C27.88 9 31 12.14 31 16C31 18.8 29.37 21.19 27 22.31V27H20V24H19C17.89 24 17 23.11 17 22V19H15.5C15.08 19 14.84 18.5 15.08 18.19L17 15.66C17.0881 13.8633 17.8643 12.1694 19.1675 10.9294C20.4708 9.6895 22.2012 8.99861 24 9V9ZM24 7C19.41 7 15.61 10.42 15.06 14.9L13.5 17H13.47L13.45 17.03C12.9 17.79 12.83 18.79 13.26 19.62C13.62 20.31 14.26 20.79 15 20.94V22C15 23.85 16.28 25.42 18 25.87V29H29V23.5C31.5 21.83 33 19.06 33 16C33 11.03 28.96 7 24 7ZM28 14.83C28 16.37 26.64 17.6 24.58 19.47L24 20L23.42 19.47C21.36 17.6 20 16.37 20 14.83C20 13.63 20.96 12.64 22.16 12.63H22.2C22.89 12.63 23.55 12.94 24 13.46C24.45 12.94 25.11 12.63 25.8 12.63C27 12.62 28 13.59 28 14.79V14.83V14.83Z" fill="black"/>
<g filter="url(#filter0_d_3_147)">
<circle cx="22.5" cy="18.5" r="18.5" fill="#225CCC" fill-opacity="0.51" shape-rendering="crispEdges"/>
</g>
<defs>
<filter id="filter0_d_3_147" x="0" y="0" width="45" height="45" filterUnits="userSpaceOnUse" color-interpolation-filters="sRGB">
<feFlood flood-opacity="0" result="BackgroundImageFix"/>
<feColorMatrix in="SourceAlpha" type="matrix" values="0 0 0 0 0 0 0 0 0 0 0 0 0 0 0 0 0 0 127 0" result="hardAlpha"/>
<feOffset dy="4"/>
<feGaussianBlur stdDeviation="2"/>
<feComposite in2="hardAlpha" operator="out"/>
<feColorMatrix type="matrix" values="0 0 0 0 0 0 0 0 0 0 0 0 0 0 0 0 0 0 0.25 0"/>
<feBlend mode="normal" in2="BackgroundImageFix" result="effect1_dropShadow_3_147"/>
<feBlend mode="normal" in="SourceGraphic" in2="effect1_dropShadow_3_147" result="shape"/>
</filter>
</defs>
</svg>
