<svg width="20" height="37" viewBox="0 0 20 37" fill="none" xmlns="http://www.w3.org/2000/svg">
<path d="M16.5359 36.5687C16.1782 36.5694 15.8243 36.4955 15.497 36.351C15.1698 36.2064 14.8765 35.9947 14.636 35.7299L0.725951 20.4301C0.303445 19.9649 0.0662972 19.3606 0.0594774 18.7323C0.0526577 18.104 0.276638 17.4951 0.688948 17.0209L14.598 1.02087C15.0446 0.507281 15.6769 0.192249 16.3559 0.144896C17.0349 0.0975435 17.7049 0.321807 18.2185 0.768432C18.732 1.21506 19.0472 1.84727 19.0945 2.52624C19.1419 3.20522 18.9176 3.87545 18.4709 4.38904L6.05795 18.663L18.433 32.2758C18.7671 32.6437 18.9872 33.101 19.0664 33.5917C19.1457 34.0823 19.0808 34.5855 18.8796 35.0399C18.6783 35.4944 18.3495 35.8806 17.9329 36.1517C17.5163 36.4228 17.03 36.5668 16.533 36.5668L16.5359 36.5687Z" fill="#A0CBFA"/>
</svg>
