<svg width="20" height="37" viewBox="0 0 20 37" fill="none" xmlns="http://www.w3.org/2000/svg">
<path d="M2.83795 36.569C3.19569 36.5697 3.54964 36.4957 3.87689 36.3512C4.20415 36.2067 4.49748 35.995 4.73798 35.7301L18.6469 20.4303C19.0696 19.9653 19.3069 19.3614 19.3139 18.7331C19.3209 18.1047 19.0972 17.4955 18.685 17.0211L4.77496 1.02114C4.32662 0.513793 3.69593 0.204189 3.02032 0.159816C2.34472 0.115443 1.67888 0.339975 1.16803 0.784328C0.657182 1.22868 0.342694 1.85665 0.29303 2.53189C0.243366 3.20713 0.462555 3.875 0.902893 4.38931L13.316 18.6632L0.940979 32.276C0.606405 32.6438 0.385866 33.1011 0.306336 33.5919C0.226805 34.0828 0.291675 34.586 0.492981 35.0407C0.694287 35.4953 1.02339 35.8815 1.44025 36.1525C1.8571 36.4235 2.34367 36.5675 2.84088 36.567L2.83795 36.569Z" fill="#A0CBFA"/>
</svg>
