<svg width="20" height="37" viewBox="0 0 20 37" fill="none" xmlns="http://www.w3.org/2000/svg">
<path d="M2.83804 36.994C3.19584 36.9944 3.54974 36.9199 3.87698 36.7752C4.20422 36.6306 4.49758 36.4191 4.73806 36.1542L18.647 20.8541C19.0696 20.3891 19.307 19.7852 19.314 19.1568C19.321 18.5285 19.0973 17.9195 18.6851 17.4452L4.77505 1.44517C4.32471 0.945541 3.6962 0.642742 3.02481 0.601908C2.35342 0.561075 1.69278 0.785294 1.18521 1.22666C0.677638 1.66803 0.363722 2.29121 0.310939 2.96177C0.258157 3.63233 0.470718 4.29677 0.90298 4.81211L13.3161 19.086L0.941066 32.6991C0.606622 33.067 0.386254 33.5242 0.306789 34.015C0.227324 34.5058 0.292167 35.0091 0.493434 35.4637C0.694702 35.9184 1.02368 36.3049 1.44046 36.576C1.85723 36.8472 2.34376 36.9913 2.84097 36.9911L2.83804 36.994Z" fill="#A2A4F8"/>
</svg>
