<svg width="20" height="37" viewBox="0 0 20 37" fill="none" xmlns="http://www.w3.org/2000/svg">
<path d="M16.5359 36.9939C16.1782 36.9943 15.8242 36.9198 15.497 36.7751C15.1698 36.6304 14.8764 36.4189 14.636 36.154L0.725951 20.854C0.303445 20.3888 0.0662972 19.7848 0.0594774 19.1565C0.0526577 18.5281 0.276638 17.9192 0.688948 17.445L14.598 1.44504C15.0455 0.935191 15.6767 0.623282 16.3536 0.577607C17.0305 0.531932 17.6979 0.756044 18.2099 1.20114C18.7219 1.64624 19.0368 2.27596 19.0857 2.95261C19.1346 3.62925 18.9136 4.29786 18.4709 4.81198L6.05795 19.0859L18.433 32.6989C18.7669 33.067 18.9869 33.5242 19.0661 34.0149C19.1453 34.5055 19.0804 35.0086 18.8792 35.4631C18.678 35.9176 18.3492 36.3039 17.9327 36.5752C17.5162 36.8464 17.03 36.9907 16.533 36.9909L16.5359 36.9939Z" fill="#A2A4F8"/>
</svg>
