)<svg width="20" height="20" viewBox="0 0 20 20" fill="none" xmlns="http://www.w3.org/2000/svg">
<path d="M10 0C15.5228 0 20 4.47715 20 10C20 15.5228 15.5228 20 10 20C4.47715 20 0 15.5228 0 10C0 4.47715 4.47715 0 10 0ZM10 2C5.58172 2 2 5.58172 2 10C2 14.4183 5.58172 18 10 18C14.4183 18 18 14.4183 18 10C18 5.58172 14.4183 2 10 2ZM15.5942 5.76363C16.0234 6.1112 16.0896 6.7409 15.742 7.1701L10.0781 14.1644C9.9177 14.3625 9.69718 14.4833 9.46402 14.5217L9.3466 14.5341C9.11054 14.5449 8.86974 14.4727 8.67164 14.3122L5.56306 11.795C5.13385 11.4474 5.06767 10.8177 5.41523 10.3885C5.7628 9.95929 6.39249 9.8931 6.8217 10.2407L9.153 12.128L14.1877 5.91146C14.5353 5.48225 15.165 5.41607 15.5942 5.76363Z" fill="#23E386"/>
</svg>
