<svg width="68" height="70" viewBox="0 0 68 70" fill="none" xmlns="http://www.w3.org/2000/svg">
<g filter="url(#filter0_d_3_147)">
<ellipse cx="34" cy="31" rx="30" ry="31" fill="#265FCD" fill-opacity="0.51" shape-rendering="crispEdges"/>
</g>
<path fill-rule="evenodd" clip-rule="evenodd" d="M30 17.7188C30 20.2558 27.9853 22.3125 25.5 22.3125C23.0147 22.3125 21 20.2558 21 17.7188C21 15.1817 23.0147 13.125 25.5 13.125C27.9853 13.125 30 15.1817 30 17.7188ZM28 17.7188C28 19.1282 26.8807 20.2708 25.5 20.2708C24.1193 20.2708 23 19.1282 23 17.7188C23 16.3093 24.1193 15.1667 25.5 15.1667C26.8807 15.1667 28 16.3093 28 17.7188Z" fill="#333333"/>
<path fill-rule="evenodd" clip-rule="evenodd" d="M47 17.7188C47 20.2558 44.9852 22.3125 42.5 22.3125C40.0147 22.3125 38 20.2558 38 17.7188C38 15.1817 40.0147 13.125 42.5 13.125C44.9852 13.125 47 15.1817 47 17.7188ZM45 17.7188C45 19.1282 43.8807 20.2708 42.5 20.2708C41.1193 20.2708 40 19.1282 40 17.7188C40 16.3093 41.1193 15.1667 42.5 15.1667C43.8807 15.1667 45 16.3093 45 17.7188Z" fill="#333333"/>
<path fill-rule="evenodd" clip-rule="evenodd" d="M46.1492 49.8704C47.4696 49.7898 48.5 48.6733 48.5 47.3229V38.6033C48.6628 38.6313 48.8299 38.6458 49 38.6458C50.6568 38.6458 52 37.2747 52 35.5833C52 35.0514 51.9941 34.5583 51.9891 34.1448L51.9889 34.1334V34.1317V34.1304L51.9846 33.7518C51.9819 33.4888 51.9814 33.2954 51.9827 33.1569C51.9833 33.0877 51.9843 33.0351 51.9856 32.9962C51.9857 32.9914 51.9859 32.9869 51.986 32.9826C51.9865 32.97 51.987 32.9599 51.9874 32.952L51.9877 32.946L51.9882 32.9381L51.996 32.8481C51.9987 32.8181 52 32.788 52 32.7577V32.6673C51.9999 30.5279 51.7505 28.336 50.8214 26.5834C50.329 25.6546 49.619 24.7996 48.6297 24.1923C47.6384 23.5837 46.5448 23.3333 45.4542 23.3333H41.5458C38.1649 23.3333 35.5886 25.6078 34 27.7273C32.4114 25.6078 29.8351 23.3333 26.4542 23.3333H22.5458C21.4552 23.3333 20.3616 23.5837 19.3702 24.1923C18.381 24.7996 17.671 25.6546 17.1786 26.5834C16.2495 28.336 16 30.5279 16 32.6673V32.7577C16 32.788 16.0013 32.8181 16.0039 32.8481L16.0118 32.938L16.0126 32.952C16.0131 32.9625 16.0138 32.9769 16.0144 32.9962C16.0156 33.0351 16.0167 33.0877 16.0173 33.1569C16.0186 33.2954 16.0181 33.4888 16.0154 33.7518C16.0142 33.8692 16.0127 33.9963 16.011 34.1324L16.011 34.1342C16.006 34.5499 16 35.0469 16 35.5833C16 37.2747 17.3432 38.6458 19 38.6458C19.1701 38.6458 19.3372 38.6313 19.5 38.6033V47.3229C19.5 48.6775 20.5368 49.7962 21.8617 49.8711C23.1867 49.946 24.3382 48.9511 24.4847 47.6047L24.5 47.4643L24.5153 47.6047C24.6618 48.9511 25.8133 49.946 27.1383 49.8711C28.4632 49.7962 29.5 48.6775 29.5 47.3229V37.6482L29.7427 32.198C30.1148 32.8029 30.4057 33.4138 30.6146 33.9699C30.8947 34.7155 31 35.2892 31 35.5833C31 37.2747 32.3431 38.6458 34 38.6458C34.9691 38.6458 35.8308 38.1767 36.3793 37.4489C36.7685 36.9323 37 36.2854 37 35.5833C37 35.2892 37.1052 34.7155 37.3853 33.9699C37.5942 33.4138 37.8852 32.8029 38.2573 32.198L38.5 37.6482V47.3229C38.5 48.6733 39.5304 49.7898 40.8508 49.8704C42.1712 49.951 43.3246 48.9677 43.4822 47.627L43.5 47.4755L43.5178 47.627C43.6754 48.9677 44.8288 49.951 46.1492 49.8704ZM21.5 47.3229C21.5 47.5938 21.7074 47.8176 21.9724 47.8325C22.2373 47.8475 22.4676 47.6485 22.4969 47.3792L23.5061 38.1074C23.5624 37.5905 23.9905 37.1994 24.5 37.1994C25.0096 37.1994 25.4376 37.5905 25.4939 38.1074L26.5031 47.3792C26.5324 47.6485 26.7627 47.8475 27.0276 47.8325C27.2926 47.8176 27.5 47.5938 27.5 47.3229V37.625C27.5 37.6096 27.5003 37.594 27.501 37.5786L27.8611 29.4931C27.8785 29.1025 28.113 28.7563 28.4649 28.6017C28.8168 28.4472 29.2243 28.5115 29.5141 28.7673C30.0321 29.2245 30.5323 29.7904 31.0019 30.454C31.6596 31.3835 32.1519 32.36 32.482 33.2389C32.8045 34.0973 33 34.9364 33 35.5833C33 36.1471 33.4477 36.6041 34 36.6041C34.5523 36.6041 35 36.1471 35 35.5833C35 33.7875 34.0568 31.2845 32.6232 29.2585C31.1952 27.2405 29.0482 25.375 26.4542 25.375H22.5458C21.757 25.375 21.0324 25.5543 20.401 25.942C19.7703 26.3292 19.2911 26.8882 18.9375 27.5552C18.2491 28.8538 18 30.63 18 32.6673V32.7125L18.0039 32.7576C18.019 32.9306 18.0205 33.2603 18.0153 33.7731C18.0141 33.8927 18.0125 34.0213 18.0109 34.1567C18.0059 34.5737 18 35.0602 18 35.5833C18 36.1471 18.4477 36.6041 19 36.6041C19.1838 36.6041 19.3532 36.5544 19.4993 36.4682L19.5 30.4791H21.5V47.3229ZM35.3768 29.2585C35.3095 29.3536 35.2433 29.4497 35.1782 29.5468C35.5723 30.2527 35.9196 30.9929 36.2025 31.7389C36.4336 31.3099 36.6987 30.8771 36.998 30.454C37.4676 29.7904 37.9678 29.2245 38.4859 28.7673C38.7757 28.5115 39.1831 28.4472 39.5351 28.6017C39.887 28.7563 40.1215 29.1025 40.1389 29.4931L40.4989 37.5786C40.4996 37.594 40.5 37.6096 40.5 37.625V47.3229C40.5 47.5929 40.706 47.8163 40.9701 47.8324C41.2342 47.8485 41.4649 47.6518 41.4964 47.3837L42.5071 38.7859C42.5674 38.2728 42.9938 37.8866 43.5 37.8866C44.0062 37.8866 44.4325 38.2728 44.4928 38.7859L45.5035 47.3837C45.535 47.6518 45.7657 47.8485 46.0298 47.8324C46.2939 47.8163 46.5 47.5929 46.5 47.3229V30.4791H48.5V36.4678C48.646 36.554 48.8162 36.6041 49 36.6041C49.5523 36.6041 50 36.1471 50 35.5833C50 35.0603 49.9941 34.5746 49.9891 34.1577V34.1555L49.9889 34.1452C49.9873 34.014 49.9859 33.8892 49.9847 33.7731C49.9794 33.2603 49.981 32.9306 49.996 32.7576L50 32.7125V32.6673C49.9999 30.63 49.7509 28.8538 49.0625 27.5552C48.7089 26.8882 48.2297 26.3292 47.599 25.942C46.9676 25.5543 46.243 25.375 45.4542 25.375H41.5458C38.9518 25.375 36.8048 27.2405 35.3768 29.2585Z" fill="#333333"/>
<defs>
<filter id="filter0_d_3_147" x="0" y="0" width="68" height="70" filterUnits="userSpaceOnUse" color-interpolation-filters="sRGB">
<feFlood flood-opacity="0" result="BackgroundImageFix"/>
<feColorMatrix in="SourceAlpha" type="matrix" values="0 0 0 0 0 0 0 0 0 0 0 0 0 0 0 0 0 0 127 0" result="hardAlpha"/>
<feOffset dy="4"/>
<feGaussianBlur stdDeviation="2"/>
<feComposite in2="hardAlpha" operator="out"/>
<feColorMatrix type="matrix" values="0 0 0 0 0 0 0 0 0 0 0 0 0 0 0 0 0 0 0.25 0"/>
<feBlend mode="normal" in2="BackgroundImageFix" result="effect1_dropShadow_3_147"/>
<feBlend mode="normal" in="SourceGraphic" in2="effect1_dropShadow_3_147" result="shape"/>
</filter>
</defs>
</svg>
