<svg width="30" height="34" viewBox="0 0 22 24" fill="none" xmlns="http://www.w3.org/2000/svg">
<path d="M6.483 8.092L6.623 8.08C6.67369 8.0744 6.72217 8.05618 6.764 8.027L6.763 8.028C6.897 8.49 7.061 8.976 7.266 9.485C7.529 10.151 7.788 10.698 8.078 11.226L8.038 11.146C8.014 11.51 7.985 11.884 7.947 12.246C7.93035 12.4596 7.88701 12.6702 7.818 12.873L7.823 12.855C7.811 12.86 7.794 14.935 7.794 14.935C7.79437 15.5788 8.01137 16.2038 8.41007 16.7094C8.80877 17.2149 9.36597 17.5716 9.992 17.722L10.012 17.726C10.0398 17.6538 10.0888 17.5917 10.1525 17.5478C10.2162 17.5039 10.2916 17.4803 10.369 17.48H10.943C11.0197 17.481 11.0943 17.5046 11.1576 17.5478C11.2209 17.5911 11.2701 17.652 11.299 17.723L11.3 17.726C11.9313 17.5801 12.4949 17.2253 12.8995 16.7191C13.304 16.2129 13.5258 15.585 13.529 14.937V14.936C13.529 14.936 13.494 12.87 13.476 12.856C13.4164 12.6627 13.3755 12.4641 13.354 12.263L13.353 12.248C13.318 11.884 13.295 11.519 13.262 11.148C13.509 10.702 13.768 10.156 13.996 9.593L14.034 9.487C14.239 8.978 14.398 8.493 14.537 8.03C14.5781 8.05917 14.6259 8.07741 14.676 8.083H14.677L14.818 8.095C14.988 8.113 15.138 7.973 15.152 7.756L15.304 5.825V5.823C15.3039 5.74529 15.2756 5.67028 15.2242 5.61194C15.1729 5.55361 15.1021 5.51596 15.025 5.506H15.006C15.1392 4.50049 15.0567 3.47815 14.764 2.507L14.777 2.558C14.4949 1.93172 14.066 1.38272 13.5265 0.957602C12.987 0.532481 12.3529 0.24378 11.678 0.116L11.652 0.112C11.3248 0.0463981 10.9926 0.00892791 10.659 0H10.638C10.289 0.00624911 9.94146 0.0457613 9.6 0.118L9.636 0.112C8.96148 0.237201 8.32677 0.522158 7.78499 0.94302C7.24321 1.36388 6.81013 1.9084 6.522 2.531L6.511 2.558C6.2231 3.5254 6.14637 4.54337 6.286 5.543L6.282 5.506C6.20473 5.51436 6.13325 5.55091 6.08123 5.60865C6.02921 5.66639 6.00029 5.74128 6 5.819V5.826L6.152 7.757C6.166 7.979 6.318 8.113 6.482 8.095L6.483 8.092Z" fill="red"/>
<path d="M21.4168 20.587C21.3468 17.547 21.0428 16.859 20.8788 16.393C20.8138 16.206 20.7608 14.942 18.6728 14.122C17.3928 13.618 15.7408 13.608 14.3428 13.017V14.661C14.3414 15.5038 14.0469 16.3199 13.5098 16.9694C12.9726 17.6189 12.2264 18.0613 11.3988 18.221L11.3758 18.225C11.3608 18.3137 11.3152 18.3943 11.2468 18.4528C11.1785 18.5113 11.0918 18.5439 11.0018 18.545H10.9838V19.785C10.9838 20.3669 11.215 20.9249 11.6264 21.3364C12.0379 21.7478 12.5959 21.979 13.1778 21.979C13.7597 21.979 14.3178 21.7478 14.7292 21.3364C15.1407 20.9249 15.3718 20.3669 15.3718 19.785V18.919C15.0698 18.8747 14.7945 18.7213 14.598 18.4877C14.4015 18.2542 14.2973 17.9567 14.3053 17.6516C14.3133 17.3464 14.4328 17.0548 14.6413 16.8318C14.8498 16.6089 15.1328 16.4701 15.4367 16.4416C15.7406 16.4132 16.0444 16.4971 16.2906 16.6776C16.5368 16.858 16.7083 17.1224 16.7728 17.4208C16.8372 17.7191 16.7901 18.0307 16.6403 18.2967C16.4905 18.5626 16.2484 18.7645 15.9598 18.864L15.9508 18.867V19.832C15.9508 20.5677 15.6586 21.2733 15.1383 21.7935C14.6181 22.3137 13.9125 22.606 13.1768 22.606C12.4411 22.606 11.7355 22.3137 11.2153 21.7935C10.6951 21.2733 10.4028 20.5677 10.4028 19.832V19.782V19.784V18.533C10.3172 18.5272 10.236 18.4926 10.1725 18.4349C10.109 18.3772 10.0668 18.2997 10.0528 18.215V18.213C9.22436 18.055 8.47662 17.6138 7.9377 16.9651C7.39878 16.3163 7.10222 15.5004 7.09882 14.657V13C5.69482 13.603 4.03282 13.615 2.74582 14.12C0.651823 14.939 0.603823 16.2 0.539823 16.39C0.379823 16.858 0.071823 17.543 0.00182301 20.585C-0.010177 20.985 0.00182307 21.598 1.20782 22.134C3.83382 23.164 7.21682 23.484 10.5518 23.714H10.8718C14.2138 23.486 17.5918 23.167 20.2158 22.134C21.4168 21.601 21.4278 20.992 21.4168 20.588V20.587ZM6.73582 19.347H5.48982V20.598H4.59982V19.351H3.35382V18.461H4.59982V17.215H5.48982V18.461H6.73582V19.347Z" fill="red"/>
</svg> 
