<svg width="24" height="23" viewBox="0 0 24 23" fill="none" xmlns="http://www.w3.org/2000/svg">
<path d="M13.944 1.3999L15.954 5.47314C16.1008 5.77125 16.318 6.0288 16.5868 6.22412C16.8557 6.41944 17.1681 6.54674 17.497 6.59424L21.991 7.24707C22.3702 7.30163 22.7265 7.46122 23.0196 7.70801C23.3126 7.9548 23.5306 8.27866 23.6489 8.64307C23.7672 9.00747 23.781 9.39769 23.6887 9.76953C23.5965 10.1414 23.4019 10.4802 23.127 10.7471L19.875 13.917C19.6371 14.1489 19.4591 14.4354 19.3565 14.7515C19.2539 15.0675 19.2297 15.4035 19.286 15.731L20.053 20.207C20.1176 20.584 20.0754 20.9714 19.9313 21.3257C19.7872 21.6799 19.5468 21.9866 19.2375 22.2114C18.9281 22.4362 18.562 22.57 18.1805 22.5977C17.7991 22.6253 17.4175 22.546 17.079 22.3682L13.06 20.2539C12.7656 20.0997 12.4382 20.019 12.106 20.019C11.7737 20.019 11.4463 20.0997 11.152 20.2539L7.13296 22.3682C6.7944 22.546 6.41284 22.6253 6.0314 22.5977C5.64996 22.57 5.28384 22.4362 4.97445 22.2114C4.66506 21.9866 4.42475 21.6799 4.28063 21.3257C4.13652 20.9714 4.09437 20.584 4.15896 20.207L4.92596 15.731C4.98222 15.4035 4.95801 15.0675 4.8554 14.7515C4.75279 14.4354 4.57487 14.1489 4.33697 13.917L1.08496 10.7471C0.810066 10.4802 0.615473 10.1414 0.523219 9.76953C0.430965 9.39769 0.444739 9.00747 0.563014 8.64307C0.681289 8.27866 0.899334 7.9548 1.19238 7.70801C1.48542 7.46122 1.84176 7.30163 2.22097 7.24707L6.71496 6.59424C7.0438 6.54657 7.35612 6.41942 7.62493 6.22412C7.89375 6.02882 8.111 5.77115 8.25796 5.47314L10.268 1.3999C10.4373 1.05705 10.6992 0.768722 11.024 0.566895C11.3488 0.365068 11.7236 0.257812 12.106 0.257812C12.4884 0.257812 12.8632 0.365068 13.188 0.566895C13.5128 0.768722 13.7746 1.05705 13.944 1.3999V1.3999Z" fill="#FFF573"/>
</svg>
