<svg width="30" height="30" viewBox="0 0 24 24" fill="none" xmlns="http://www.w3.org/2000/svg">
<path d="M5.99701 20.0047C5.44472 20.0047 4.99701 19.557 4.99701 19.0047L4.99699 13.0041L3.29999 13.0047C3.02385 13.0047 2.79999 12.7809 2.79999 12.5047C2.79999 12.363 2.86015 12.2279 2.96551 12.1331L5.99699 9.4031L5.99701 6.50474C5.99701 6.22859 6.22087 6.00474 6.49701 6.00474H7.49701C7.77315 6.00474 7.99701 6.22859 7.99701 6.50474L7.99699 7.6041L11.328 4.6068C11.7083 4.26453 12.2857 4.26453 12.666 4.6068L21.0268 12.1316C21.2321 12.3163 21.2487 12.6324 21.064 12.8377C20.969 12.9432 20.8337 13.0034 20.6918 13.0032L18.997 13.0001L18.997 19.0047C18.997 19.557 18.5493 20.0047 17.997 20.0047H5.99701ZM11.997 6.69546L6.99699 11.1941L6.99701 18.0047L10.997 18.0041L10.997 14.5047C10.997 14.2286 11.2209 14.0047 11.497 14.0047H12.497C12.7732 14.0047 12.997 14.2286 12.997 14.5047L12.997 18.0041L16.997 18.0047L16.997 11.1961L11.997 6.69546Z" fill="#939393"/>
</svg>
