<svg width="30" height="30" viewBox="0 0 48 48" fill="none" xmlns="http://www.w3.org/2000/svg">
<path d="M24 48C37.2548 48 48 37.2548 48 24C48 10.7452 37.2548 0 24 0C10.7452 0 0 10.7452 0 24C0 37.2548 10.7452 48 24 48Z" fill="#939393"/>
<path d="M24 13C26.7614 13 29 15.2386 29 18C29 19.9567 28.8947 21.0508 28.4167 22.2201C28.2456 22.6387 28.0333 23.0158 27.7797 23.3476L29.1089 23.8464C31.4496 24.7252 33 26.9634 33 29.4636V31C33 31.5523 32.5523 32 32 32H16C15.4477 32 15 31.5523 15 31V29.4664C15 26.9645 16.5524 24.7252 18.8954 23.8476L20.2225 23.3506C19.9679 23.018 19.7549 22.64 19.5833 22.2201C19.1053 21.0508 19 19.9567 19 18C19 15.2386 21.2386 13 24 13ZM24 25.0266C23.3275 25.0266 22.7238 24.9322 22.1887 24.7512L19.5969 25.7205C18.035 26.3056 17 27.7985 17 29.4664V30H31V29.4636C31 27.7968 29.9664 26.3047 28.4059 25.7188L25.8183 24.7488C25.2814 24.9314 24.6754 25.0266 24 25.0266ZM24 15C22.3431 15 21 16.3431 21 18C21 21.5857 21.589 23.0266 24 23.0266C26.411 23.0266 27 21.5857 27 18C27 16.3431 25.6569 15 24 15Z" fill="white"/>
</svg>
