<svg width="30" height="30" viewBox="0 0 24 24" fill="none" xmlns="http://www.w3.org/2000/svg">
<path d="M4 2C2.34315 2 1 3.34302 1 4.99971V10.9991C1 12.3052 1.83481 13.4164 3 13.8282V15.9987C3 16.8464 3.98886 17.3095 4.64018 16.7668L7 14.8V15.9987C7 17.6554 8.34315 18.9984 10 18.9984H15.038L18.3598 21.7663C19.0111 22.3091 20 21.8459 20 20.9982V18.8277C21.1652 18.4159 22 17.3048 22 15.9987V8.99933C22 7.34264 20.6569 5.99962 19 5.99962L16 5.999V4.99971C16 3.40219 14.7511 2.09633 13.1763 2.00509L13 2H4ZM10 7.99943H19C19.5523 7.99943 20 8.4471 20 8.99933V15.9987C20 16.5509 19.5523 16.9986 19 16.9986C18.4477 16.9986 18 17.4462 18 17.9985V18.8633L16.0402 17.2303C15.8605 17.0806 15.6339 16.9986 15.4 16.9986H10C9.44772 16.9986 9 16.5509 9 15.9987V8.99933C9 8.4471 9.44772 7.99943 10 7.99943ZM11.9999 12.9989C11.4477 12.9989 11 13.4466 11 13.9989C11 14.5511 11.4477 14.9988 11.9999 14.9988H15.0001C15.5523 14.9988 16 14.5511 16 13.9989C16 13.4466 15.5523 12.9989 15.0001 12.9989H11.9999ZM4 3.99981H13C13.5523 3.99981 14 4.44748 14 4.99971V5.999L10 5.99962C8.34315 5.99962 7 7.34264 7 8.99933V12.201L6.95982 12.2308L5 13.8638V12.9989C5 12.4467 4.55228 11.999 4 11.999C3.44772 11.999 3 11.5514 3 10.9991V4.99971C3 4.44748 3.44772 3.99981 4 3.99981ZM11.9999 9.99924C11.4477 9.99924 11 10.4469 11 10.9991C11 11.5514 11.4477 11.999 11.9999 11.999H17.0001C17.5523 11.999 18 11.5514 18 10.9991C18 10.4469 17.5523 9.99924 17.0001 9.99924H11.9999Z" fill="#52555A"/>
</svg>