<svg width="32" height="32" viewBox="0 0 32 32" fill="none" xmlns="http://www.w3.org/2000/svg">
<rect opacity="0.16" width="32" height="32" rx="4" fill="#AFAFAF"/>
<path d="M23 19C23.5523 19 24 19.4477 24 20C24 20.5523 23.5523 21 23 21H9C8.44772 21 8 20.5523 8 20C8 19.4477 8.44772 19 9 19H23ZM23 15C23.5523 15 24 15.4477 24 16C24 16.5523 23.5523 17 23 17H9C8.44772 17 8 16.5523 8 16C8 15.4477 8.44772 15 9 15H23ZM23 11C23.5523 11 24 11.4477 24 12C24 12.5523 23.5523 13 23 13H9C8.44772 13 8 12.5523 8 12C8 11.4477 8.44772 11 9 11H23Z" fill="#52555A"/>
</svg>
