<svg width="24" height="24" viewBox="0 0 24 24" fill="none" xmlns="http://www.w3.org/2000/svg">
<path d="M8 3C9.88776 3 11.1594 3.90883 11.7023 5.30713C12.2345 5.10709 12.8335 5 13.4863 5C16.191 5 18 6.85328 18 9.47217C18 10.9133 17.7403 12.2929 17.2126 13.408L18.2283 13.8143C20.5063 14.7255 22 16.9317 22 19.3852V21C22 21.5523 21.5523 22 21 22H6C5.44772 22 5 21.5523 5 21V19.3852C5 19.2557 5.00416 19.127 5.01237 18.9991L2 19C1.44772 19 1 18.5523 1 18V17.0923C1 14.8183 2.28549 12.7398 4.31999 11.7241L4.9293 11.4201C4.26069 10.3419 4 8.79333 4 7C4 4.67019 5.42235 3 8 3ZM13.4762 15.9816C12.4693 15.9816 11.64 15.6519 10.9806 15.0856L9.51444 15.6713C7.9958 16.2787 7 17.7495 7 19.3852V20H20V19.3852C20 17.7495 19.0042 16.2787 17.4856 15.6713L15.9877 15.072C15.3205 15.6456 14.4847 15.9816 13.4762 15.9816ZM8 13.0266C7.48284 13.0266 7.02555 12.9518 6.62279 12.8105L5.21333 13.5135C3.88456 14.1768 3.03505 15.5203 3.00106 17L5.49405 17.0005C6.11129 15.5763 7.27139 14.4144 8.77166 13.8143L9.7642 13.417C9.68542 13.247 9.61286 13.0707 9.54645 12.8888L9.38374 12.8069C8.97936 12.9505 8.51992 13.0266 8 13.0266ZM13.4863 7C11.8999 7 11 7.92985 11 9.47217C11 11.9718 11.9395 13.9816 13.4762 13.9816C15.022 13.9816 16 11.9326 16 9.47217C16 7.94717 15.0755 7 13.4863 7ZM8 5C6.60455 5 6 5.70989 6 7C6 9.44131 6.6064 11.0266 8 11.0266C8.42108 11.0266 8.77058 10.8798 9.05324 10.6076C9.01744 10.2363 9 9.8569 9 9.47217C9 8.30939 9.34736 7.3013 9.9684 6.5381C9.83055 5.55107 9.20937 5 8 5Z" fill="#52555A"/>
</svg>