<svg width="30" height="30" viewBox="0 0 46 57" fill="none" xmlns="http://www.w3.org/2000/svg">
<path d="M35.1489 30.875C35.1489 32.1866 34.3059 33.25 33.2659 33.25C32.2261 33.25 31.383 32.1866 31.383 30.875C31.383 29.5634 32.2261 28.5 33.2659 28.5C34.3059 28.5 35.1489 29.5634 35.1489 30.875Z" fill="#939393"/>
<path d="M13.8085 44.3333H18.8297V41.1667H13.8085V44.3333Z" fill="#939393"/>
<path d="M18.8297 50.6667H13.8085V47.5H18.8297V50.6667Z" fill="#939393"/>
<path fill-rule="evenodd" clip-rule="evenodd" d="M26.0138 25.564C26.6283 25.564 26.7303 25.4199 26.9259 25.1438C27.0392 24.9839 27.184 24.7795 27.4779 24.5333C28.2916 25.2035 29.2517 25.5548 30.2316 25.5409L33.344 24.1507C34.2211 23.2633 34.8232 22.0329 35.0496 20.6658C35.276 19.2986 35.1129 17.8774 34.5877 16.6402C34.0624 15.4028 33.2069 14.4246 32.1642 13.8691C31.9263 12.5454 31.3266 11.3614 30.4648 10.5137L27.4267 9.20867H27.0846C26.4088 7.99837 25.3943 7.13498 24.2339 6.78285L18.9754 6.33334C17.8927 6.4437 16.8718 6.99802 16.0769 7.90701C15.7013 7.7984 15.3168 7.74203 14.9309 7.73918C13.9965 7.74155 13.0826 8.0758 12.2997 8.70153C11.5167 9.32742 10.8979 10.218 10.5182 11.2659L8.04343 13.4178C7.4275 14.4421 7.09599 15.682 7.09759 16.955C7.09157 17.4871 7.14921 18.0177 7.26869 18.5294C6.61932 19.5635 6.27024 20.8345 6.27663 22.1401C6.27515 23.6544 6.74642 25.1118 7.59368 26.2127C7.66202 27.2968 7.97067 28.3374 8.48618 29.2217C9.00169 30.106 9.7044 30.8004 10.5182 31.23C11.4561 31.9515 12.2503 32.9221 12.8422 34.0702C13.4342 35.2181 13.6784 36.5144 13.8085 37.8635H18.9754V31.5658C18.9743 30.4477 19.2285 29.3514 19.7091 28.4015C19.7821 28.2573 19.8502 28.1173 19.9161 27.9819C20.2842 27.2254 20.5831 26.6109 21.2763 26.1917C22.0419 25.8321 22.7317 25.2651 23.2944 24.5333C24.0959 25.2048 25.0435 25.564 26.0138 25.564ZM27.9012 21.0908L28.8509 21.8731C29.1503 22.1198 29.4951 22.2802 29.8575 22.3397L32.031 21.3688C32.3175 20.9789 32.5094 20.5083 32.592 20.0094C32.6971 19.3741 32.6227 18.711 32.3743 18.126C32.1251 17.5391 31.7108 17.0561 31.1872 16.777L30.0008 16.1448L29.7159 14.5605C29.6324 14.0964 29.4488 13.6594 29.1783 13.2975L27.0108 12.3663H25.7819L25.0319 11.023C24.7453 10.5099 24.3201 10.1139 23.8156 9.91199L19.0244 9.50254C18.5456 9.58978 18.1061 9.85214 17.7632 10.2442L16.7925 11.3542L15.5154 10.9845C15.3226 10.9288 15.1249 10.8994 14.9262 10.897C14.4653 10.9005 14.02 11.0666 13.6435 11.3675C13.2651 11.67 12.9761 12.0921 12.8018 12.5733L12.5138 13.3681L9.86518 15.671C9.69494 16.0659 9.60767 16.5018 9.60828 16.9409V16.9662L9.60804 16.9917C9.60558 17.2051 9.62869 17.4186 9.67699 17.6257L10.0446 19.1998L9.23695 20.4863C8.93814 20.9621 8.78437 21.5343 8.78732 22.1114V22.1352C8.78659 22.8125 8.99677 23.4805 9.39515 23.9981L10.0247 24.8162L10.0964 25.9526C10.1274 26.4437 10.2674 26.9227 10.5089 27.3369C10.7508 27.752 11.0871 28.0885 11.4871 28.2996L11.6631 28.3923L11.8258 28.5177C12.1991 28.805 12.5558 29.1219 12.894 29.4666C13.3301 29.8976 13.8741 30.53 14.5784 31.664C15.3159 32.8515 15.7193 34.1791 15.8288 34.6945H16.4712V33.3091C16.4712 33.1708 16.4689 33.0052 16.4662 32.8198C16.453 31.9099 16.4327 30.5119 16.6526 29.4126C16.9174 28.089 17.4618 26.7963 18.1434 25.5656C18.8249 24.3349 19.8547 23.4751 20.2421 23.2896C20.6295 23.104 21.0217 22.9123 21.4042 22.4298C21.7102 22.044 22.5582 20.9331 22.944 20.426C23.3804 20.795 24.3355 21.6024 24.6651 21.8795C24.9946 22.1565 25.4301 22.3123 25.6066 22.3557C25.6539 22.3062 25.8028 22.1565 26.0185 21.9536C26.2342 21.7507 27.0826 21.0403 27.4798 20.7105L27.9012 21.0908Z" fill="#939393"/>
<path fill-rule="evenodd" clip-rule="evenodd" d="M42.3226 30.6625C42.3226 30.6625 45.5823 34.3613 45.1525 37.3288C44.7226 40.2965 40.4778 41.1136 40.4778 41.1136C40.4778 53.1039 31.3998 52.3406 26.869 51.2129C25.3623 50.8378 24.3583 50.4225 24.3583 50.4225V52.6758C24.3583 52.6758 24.264 53.0532 23.9728 53.5846C23.2813 54.8467 21.4795 56.9766 17.1941 56.9766C14.3267 57.263 9.41875 54.8956 8.1178 51.5575V41.3478C3.53272 37.0255 0 31.2026 0 23.6545C0 17.381 2.07569 11.3644 5.77046 6.92836C9.46521 2.4922 14.4764 2.11161e-05 19.7016 2.11161e-05C23.6917 -0.00540972 27.6345 1.03679 31.2539 3.05362C34.1062 4.49574 36.6034 6.79076 38.5076 9.71993C40.2466 12.797 41.2104 16.4105 41.2838 20.128C41.2995 20.9822 41.2901 21.7922 41.2808 22.576C41.2485 25.343 41.22 27.7802 42.3226 30.6625ZM40.2761 32.6L40.0614 32.0388C38.674 28.412 38.7234 25.0463 38.7655 22.1949C38.7757 21.4996 38.7855 20.8351 38.7738 20.2046C38.7135 17.1651 37.9338 14.1962 36.5119 11.6448C34.889 9.17732 32.7616 7.22761 30.3197 5.99292L30.2792 5.97243L30.2392 5.95019C26.9432 4.11347 23.3472 3.16173 19.7043 3.16669H19.7016C15.1034 3.16669 10.717 5.36127 7.50149 9.22197C4.29019 13.0775 2.51064 18.2726 2.51064 23.6545C2.51064 29.8021 5.36188 34.7964 9.62082 38.8113L10.6285 39.7612V50.639C11.048 51.2669 11.8609 52.0491 13.0825 52.7293C14.5804 53.5632 16.0993 53.9093 16.9959 53.8197L17.0949 53.8099H17.1941C19.7402 53.8099 20.9412 52.9272 21.4589 52.3868C21.6373 52.2004 21.7627 52.0258 21.8477 51.8871V46.0513L25.1371 47.4121L25.1389 47.4129L25.1408 47.4136L25.1596 47.4212C25.1806 47.4294 25.216 47.4433 25.2648 47.4618C25.3624 47.4991 25.5132 47.5548 25.7096 47.6221C26.1032 47.7571 26.6744 47.937 27.3622 48.108C28.7594 48.4551 30.5393 48.7402 32.2553 48.5996C33.9989 48.4568 35.3984 47.8988 36.3322 46.8968C37.1716 45.996 37.9671 44.3808 37.9671 41.1136V38.3936L40.0901 37.985L40.1035 37.9821C40.1195 37.9786 40.149 37.9721 40.1904 37.9622C40.2734 37.9422 40.4014 37.9091 40.5597 37.861C40.8837 37.7625 41.2984 37.6121 41.7034 37.4031C42.1241 37.1862 42.4291 36.9593 42.6099 36.7645C42.6375 36.7348 42.6587 36.7098 42.675 36.6892C42.665 36.6048 42.6381 36.4534 42.5643 36.2232C42.4264 35.7933 42.1888 35.2912 41.8815 34.7683C41.5816 34.2578 41.2622 33.8062 41.0131 33.4786C40.8905 33.3173 40.7895 33.1922 40.7229 33.1115C40.6897 33.0712 40.6654 33.0426 40.6515 33.0263L40.6434 33.0168L40.6419 33.015L40.6406 33.0136L40.639 33.0117L40.2761 32.6ZM42.7204 36.6228L42.7193 36.6252L42.717 36.6295C42.7191 36.625 42.7204 36.6228 42.7204 36.6228Z" fill="#939393"/>
</svg>
