<svg width="24" height="24" viewBox="0 0 24 24" fill="none" xmlns="http://www.w3.org/2000/svg">
<path d="M19.6676 3.896C19.8844 4.22344 20 4.60747 20 5.00019L19.9995 7.88816C20.6582 8.60119 21.0607 9.55444 21.0607 10.6017C21.0607 11.649 20.6582 12.6023 19.9994 13.3154L20 16.2276C20 17.3321 19.1046 18.2275 18 18.2275C17.6138 18.2275 17.2358 18.1157 16.9118 17.9056C13.413 15.6365 10.6262 14.3907 8.60403 14.1458L9.48639 19.4373C9.58798 20.0468 9.11794 20.6017 8.5 20.6017H5.52039L5.49627 20.6018C5.01731 20.6006 4.59498 20.2543 4.51361 19.7661L3.569 14.101L3 14.1017C2.44772 14.1017 2 13.654 2 13.1017V8.10168C2 7.5494 2.44772 7.10168 3 7.10168L8.00846 7.10172C10.0696 7.11915 13.0561 5.8752 16.8959 3.33259C17.8169 2.72286 19.0577 2.97508 19.6676 3.896ZM6.569 14.101H5.597L6.347 18.601L7.31954 18.6017L6.569 14.101ZM18 5.00019C14.3825 7.39563 11.3985 8.75126 9.00006 9.04229L9.00027 12.181C11.3772 12.5121 14.3612 13.8677 18 16.2276V5.00019ZM7 9.10168H4V12.1017H7V9.10168Z" fill="#E70000"/>
</svg>
