<svg width="30" height="30" viewBox="0 0 24 24" fill="none" xmlns="http://www.w3.org/2000/svg">
<path d="M12 2C14.7614 2 17 4.23858 17 7C17 8.95672 16.8947 10.0508 16.4167 11.2201C16.2456 11.6387 16.0333 12.0158 15.7797 12.3476L17.1089 12.8464C19.4496 13.7252 21 15.9634 21 18.4636V20C21 20.5523 20.5523 21 20 21H4C3.44772 21 3 20.5523 3 20V18.4664C3 15.9645 4.55245 13.7252 6.89537 12.8476L8.2225 12.3506C7.96794 12.018 7.75488 11.64 7.58325 11.2201C7.10532 10.0508 7 8.95672 7 7C7 4.23858 9.23858 2 12 2ZM12 14.0266C11.3275 14.0266 10.7238 13.9322 10.1887 13.7512L7.59691 14.7205C6.03496 15.3056 5 16.7985 5 18.4664V19H19V18.4636C19 16.7968 17.9664 15.3047 16.4059 14.7188L13.8183 13.7488C13.2814 13.9314 12.6754 14.0266 12 14.0266ZM12 4C10.3431 4 9 5.34315 9 7C9 10.5857 9.58895 12.0266 12 12.0266C14.411 12.0266 15 10.5857 15 7C15 5.34315 13.6569 4 12 4Z" fill="#52555A"/>
</svg>