<svg width="24" height="24" viewBox="0 0 24 24" fill="none" xmlns="http://www.w3.org/2000/svg">
<g clip-path="url(#clip0_29_2842)">
<path d="M4.94975 4.94967C7.68342 2.216 12.1156 2.216 14.8492 4.94967C17.3436 7.44399 17.562 11.3524 15.5044 14.0944C15.522 14.1089 15.5394 14.1251 15.5563 14.1421L19.799 18.3847C20.1895 18.7752 20.1895 19.4084 19.799 19.7989C19.4085 20.1894 18.7753 20.1894 18.3848 19.7989L14.1421 15.5563L14.0952 15.5037C11.3533 17.5619 7.44432 17.3437 4.94975 14.8492C2.21608 12.1155 2.21608 7.68334 4.94975 4.94967ZM6.36396 6.36388C4.41134 8.3165 4.41134 11.4823 6.36396 13.4349C8.31658 15.3876 11.4824 15.3876 13.435 13.4349C15.3876 11.4823 15.3877 8.3165 13.435 6.36388C11.4824 4.41126 8.31658 4.41126 6.36396 6.36388Z" fill="#52555A"/>
</g>
<defs>
<clipPath id="clip0_29_2842">
<rect width="24" height="24" fill="white"/>
</clipPath>
</defs>
</svg>
