<svg width="54" height="57" viewBox="0 0 54 57" fill="none" xmlns="http://www.w3.org/2000/svg">
<path fill-rule="evenodd" clip-rule="evenodd" d="M21.5 20.4C21.2239 20.4 21 20.6687 21 21C21 21.3313 21.2239 21.6 21.5 21.6C21.7761 21.6 22 21.3313 22 21C22 20.6687 21.7761 20.4 21.5 20.4ZM19 21C19 19.3432 20.1193 18 21.5 18C22.8807 18 24 19.3432 24 21C24 22.6568 22.8807 24 21.5 24C20.1193 24 19 22.6568 19 21Z" fill="#333333"/>
<path fill-rule="evenodd" clip-rule="evenodd" d="M31.5 20.4C31.2239 20.4 31 20.6687 31 21C31 21.3313 31.2239 21.6 31.5 21.6C31.7761 21.6 32 21.3313 32 21C32 20.6687 31.7761 20.4 31.5 20.4ZM29 21C29 19.3432 30.1193 18 31.5 18C32.8807 18 34 19.3432 34 21C34 22.6568 32.8807 24 31.5 24C30.1193 24 29 22.6568 29 21Z" fill="#333333"/>
<path fill-rule="evenodd" clip-rule="evenodd" d="M27 34.6667C32.8911 34.6667 37.6667 29.8911 37.6667 24C37.6667 18.1089 32.8911 13.3333 27 13.3333C21.1089 13.3333 16.3333 18.1089 16.3333 24C16.3333 29.8911 21.1089 34.6667 27 34.6667ZM27 36C33.6274 36 39 30.6274 39 24C39 17.3726 33.6274 12 27 12C20.3726 12 15 17.3726 15 24C15 30.6274 20.3726 36 27 36Z" fill="#333333"/>
<path fill-rule="evenodd" clip-rule="evenodd" d="M23.587 31.7245L23.5452 31.7625C23.1381 32.1329 22.5409 32.0623 22.2114 31.605C21.8817 31.1477 21.9446 30.4768 22.3516 30.1065C22.3937 30.0682 22.4358 30.0298 22.478 29.9913C23.6003 28.9688 24.7647 27.9081 26.5316 27.3713C28.3543 26.8176 30.7122 26.8446 34.2542 27.7152C34.7658 27.841 35.0899 28.4089 34.9779 28.9838C34.866 29.5587 34.3604 29.9226 33.8488 29.7969C30.4423 28.9595 28.4286 29.0024 27.0267 29.4283C25.6518 29.846 24.7638 30.6539 23.587 31.7245Z" fill="#333333"/>
<g filter="url(#filter0_d_3_147)">
<ellipse cx="27" cy="24.5" rx="23" ry="24.5" fill="#265FCD" fill-opacity="0.51" shape-rendering="crispEdges"/>
</g>
<defs>
<filter id="filter0_d_3_147" x="0" y="0" width="54" height="57" filterUnits="userSpaceOnUse" color-interpolation-filters="sRGB">
<feFlood flood-opacity="0" result="BackgroundImageFix"/>
<feColorMatrix in="SourceAlpha" type="matrix" values="0 0 0 0 0 0 0 0 0 0 0 0 0 0 0 0 0 0 127 0" result="hardAlpha"/>
<feOffset dy="4"/>
<feGaussianBlur stdDeviation="2"/>
<feComposite in2="hardAlpha" operator="out"/>
<feColorMatrix type="matrix" values="0 0 0 0 0 0 0 0 0 0 0 0 0 0 0 0 0 0 0.25 0"/>
<feBlend mode="normal" in2="BackgroundImageFix" result="effect1_dropShadow_3_147"/>
<feBlend mode="normal" in="SourceGraphic" in2="effect1_dropShadow_3_147" result="shape"/>
</filter>
</defs>
</svg>
