<svg width="24" height="24" viewBox="0 0 24 24" fill="none" xmlns="http://www.w3.org/2000/svg">
<path d="M7.53321 24C4.76035 24 2.17558 23.0182 0 21.3241C1.84714 21.4696 5.10692 21.1212 7.1345 18.7667C4.08435 18.5963 2.7088 15.7485 2.52938 14.5314C2.78854 14.6531 4.02454 14.7992 4.72229 14.4584C1.21363 13.3874 0.675367 9.63895 0.79498 8.49493C1.45285 9.05477 2.56925 9.24949 3.00783 9.20081C-0.261606 6.35294 0.914594 2.06897 1.49273 1.14402C3.83899 5.10122 7.35532 7.32373 11.7055 7.44735C11.6234 7.00942 11.5801 6.55348 11.5801 6.08519C11.5801 2.72443 13.8115 0 16.564 0C18.0022 0 19.2981 0.743743 20.2077 1.9334C21.1688 1.65924 22.6151 1.01746 23.3222 0.462475C22.9658 2.02028 21.8562 3.31982 21.1851 3.80147C21.1906 3.81786 21.1796 3.78501 21.1851 3.80147C21.7746 3.69291 23.3698 3.31969 24 2.79919C23.6884 3.67435 22.512 5.12946 21.5466 5.94409C21.7262 15.5875 15.6656 24 7.53321 24Z" fill="#47ACDF"/>
</svg>
