<svg width="82" height="101" viewBox="0 0 82 101" fill="none" xmlns="http://www.w3.org/2000/svg">
<path d="M80.5699 73.552C79.9115 70.614 78.6569 67.8425 76.8835 65.4092C75.1102 62.9759 72.8561 60.9327 70.2609 59.4061C67.6656 57.8796 64.7846 56.9022 61.7963 56.5345C58.8079 56.1669 55.7758 56.417 52.8879 57.269V9.69299C52.8853 7.16302 51.8792 4.73742 50.0903 2.94836C48.3015 1.15931 45.8759 0.152936 43.3459 0.150024H10.152C7.62183 0.152672 5.19607 1.15891 3.40698 2.948C1.6179 4.73708 0.611656 7.16284 0.609009 9.69299V82.3C0.611656 84.8302 1.6179 87.256 3.40698 89.045C5.19607 90.8341 7.62183 91.8404 10.152 91.843H41.752C44.8178 95.7886 49.1362 98.5722 53.9957 99.7352C58.8552 100.898 63.9659 100.371 68.4858 98.2412C73.0058 96.1111 76.6652 92.5048 78.8615 88.0166C81.0577 83.5284 81.6596 78.4261 80.568 73.55L80.5699 73.552ZM3.099 15.0861H36.9139C37.0803 15.0908 37.246 15.062 37.4011 15.0016C37.5562 14.9412 37.6977 14.8503 37.817 14.7343C37.9364 14.6182 38.0313 14.4794 38.0961 14.326C38.1609 14.1727 38.1943 14.008 38.1943 13.8416C38.1943 13.6751 38.1609 13.5103 38.0961 13.3569C38.0313 13.2036 37.9364 13.0648 37.817 12.9487C37.6977 12.8327 37.5562 12.7418 37.4011 12.6814C37.246 12.621 37.0803 12.5923 36.9139 12.597H3.09998V9.69702C3.10183 7.82693 3.84546 6.03388 5.16772 4.71143C6.48999 3.38897 8.28286 2.64506 10.153 2.64294H43.347C45.2171 2.64533 47.0097 3.3894 48.3319 4.71179C49.6541 6.03419 50.3979 7.82701 50.4 9.69702V12.597H47.495C47.171 12.6062 46.8635 12.7414 46.6376 12.9738C46.4117 13.2061 46.2853 13.5175 46.2853 13.8416C46.2853 14.1656 46.4117 14.4768 46.6376 14.7092C46.8635 14.9416 47.171 15.0769 47.495 15.0861H50.4V58.172C48.1366 59.154 46.0538 60.5084 44.238 62.179L41.918 64.6689C39.6532 67.5011 38.1273 70.8514 37.4771 74.4189H3.09998L3.099 15.0861ZM10.152 89.355C8.28197 89.3531 6.48916 88.6095 5.16687 87.2872C3.84458 85.9649 3.10085 84.172 3.099 82.302V76.9091H37.171C37.14 77.3891 37.1219 77.872 37.1219 78.36C37.1166 82.2215 38.1353 86.0154 40.074 89.355H10.152ZM77.8521 83.748C76.8439 87.2585 74.8697 90.4151 72.1545 92.858C69.4394 95.301 66.0926 96.932 62.4955 97.5652C58.8984 98.1983 55.1958 97.8081 51.8097 96.4391C48.4236 95.0701 45.4903 92.7773 43.344 89.822V89.355H43.012C40.4488 85.6111 39.2742 81.0894 39.691 76.5713C40.1079 72.0532 42.0901 67.8227 45.295 64.611L46.083 63.861C49.2323 61.0347 53.2155 59.3096 57.4314 58.9459C61.6473 58.5823 65.8671 59.5998 69.4539 61.8451C73.0406 64.0904 75.7998 67.4415 77.3147 71.3926C78.8296 75.3437 79.0183 79.6804 77.8521 83.748V83.748Z" fill="#A2A4F8"/>
<path d="M41 15.0861H43.306C43.4724 15.0908 43.6381 15.062 43.7932 15.0016C43.9483 14.9412 44.0897 14.8503 44.2091 14.7343C44.3285 14.6182 44.4234 14.4794 44.4882 14.3261C44.553 14.1727 44.5863 14.008 44.5863 13.8416C44.5863 13.6751 44.553 13.5103 44.4882 13.3569C44.4234 13.2036 44.3285 13.0648 44.2091 12.9487C44.0897 12.8327 43.9483 12.7418 43.7932 12.6814C43.6381 12.621 43.4724 12.5923 43.306 12.5971H41C40.8336 12.5923 40.6679 12.621 40.5128 12.6814C40.3577 12.7418 40.2163 12.8327 40.0969 12.9487C39.9776 13.0648 39.8827 13.2036 39.8179 13.3569C39.7531 13.5103 39.7197 13.6751 39.7197 13.8416C39.7197 14.008 39.7531 14.1727 39.8179 14.3261C39.8827 14.4794 39.9776 14.6182 40.0969 14.7343C40.2163 14.8503 40.3577 14.9412 40.5128 15.0016C40.6679 15.062 40.8336 15.0908 41 15.0861Z" fill="#A2A4F8"/>
<path d="M26.749 78.775C25.8872 78.775 25.0447 79.0306 24.3282 79.5094C23.6117 79.9882 23.0532 80.6686 22.7235 81.4648C22.3937 82.261 22.3076 83.1372 22.4758 83.9824C22.644 84.8276 23.059 85.604 23.6684 86.2133C24.2778 86.8226 25.0544 87.2374 25.8996 87.4054C26.7449 87.5734 27.6208 87.487 28.4169 87.1571C29.2131 86.8272 29.8935 86.2685 30.3721 85.5519C30.8508 84.8352 31.1061 83.9928 31.1059 83.131C31.1056 81.9756 30.6465 80.8677 29.8294 80.0508C29.0124 79.2339 27.9044 78.775 26.749 78.775V78.775ZM26.749 84.999C26.3798 84.999 26.0189 84.8896 25.7119 84.6844C25.4049 84.4793 25.1655 84.1878 25.0241 83.8467C24.8828 83.5056 24.8458 83.1303 24.9178 82.7682C24.9898 82.4061 25.1674 82.0733 25.4284 81.8121C25.6894 81.551 26.022 81.3732 26.3841 81.301C26.7462 81.2289 27.1216 81.2657 27.4627 81.4069C27.8039 81.548 28.0956 81.7871 28.3009 82.094C28.5061 82.4009 28.6157 82.7618 28.6159 83.131C28.6161 83.3762 28.5678 83.6192 28.4741 83.8458C28.3803 84.0725 28.2429 84.2783 28.0695 84.4518C27.8962 84.6253 27.6903 84.7629 27.4637 84.8568C27.2371 84.9507 26.9942 84.999 26.749 84.999V84.999Z" fill="#A2A4F8"/>
<path d="M65.5169 70.2C65.0155 70.219 64.5228 70.3372 64.0673 70.5476C63.6118 70.7581 63.2025 71.0566 62.863 71.4261L56.728 78.069L55.2089 76.6021C54.4802 75.8978 53.5016 75.5118 52.4883 75.5291C51.4751 75.5463 50.5103 75.9653 49.806 76.694C49.1017 77.4227 48.7157 78.4013 48.733 79.4146C48.7502 80.4278 49.1692 81.3928 49.8979 82.0971L54.228 86.282C54.9394 86.9725 55.8926 87.3575 56.884 87.355C56.922 87.355 56.9589 87.355 56.9919 87.355C57.5008 87.3398 58.0017 87.2235 58.4653 87.0129C58.9288 86.8022 59.3458 86.5015 59.692 86.1281L68.478 76.6131C68.991 76.0578 69.3278 75.3628 69.4457 74.6161C69.5637 73.8694 69.4575 73.1046 69.1406 72.4183C68.8237 71.7319 68.3105 71.155 67.6656 70.7605C67.0207 70.366 66.2732 70.1717 65.5179 70.2021L65.5169 70.2ZM66.6829 74.953L57.8959 84.47C57.7712 84.6047 57.621 84.7131 57.4538 84.789C57.2866 84.8648 57.106 84.9065 56.9226 84.9117C56.7391 84.9168 56.5563 84.8853 56.3852 84.8189C56.2141 84.7525 56.058 84.6526 55.926 84.5251L51.5959 80.341C51.3416 80.085 51.1979 79.7395 51.1954 79.3787C51.1929 79.0179 51.3319 78.6705 51.5826 78.411C51.8333 78.1516 52.1758 78.0007 52.5364 77.9908C52.8971 77.9808 53.2473 78.1127 53.5119 78.3581L55.93 80.694C56.1691 80.9169 56.4862 81.0367 56.8129 81.0275C57.1397 81.0183 57.4497 80.881 57.676 80.6451L64.6569 73.083C65.8369 71.806 67.8979 73.637 66.6829 74.953Z" fill="#A0CBFA"/>
</svg>
