<svg width="34" height="35" viewBox="0 0 34 35" fill="none" xmlns="http://www.w3.org/2000/svg">
<path d="M31.508 1.183C31.1214 0.953154 30.6922 0.804068 30.2463 0.744642C29.8005 0.685217 29.3471 0.716741 28.9138 0.837294C28.4805 0.957847 28.0761 1.16492 27.725 1.44606C27.3738 1.72719 27.0833 2.07655 26.871 2.47304L14.05 25.5031L6.90904 16.812C5.61604 15.323 3.89798 14.551 2.27598 15.521C1.47619 15.9976 0.896723 16.7706 0.663431 17.6719C0.430139 18.5732 0.561894 19.5302 1.03001 20.335L10.968 32.429C11.5534 33.2863 12.4366 33.8954 13.446 34.138L13.453 34.152L13.5429 34.158C13.7429 34.189 16.7429 34.743 18.0429 32.429L32.756 6.00001C33.2069 5.19122 33.3288 4.23974 33.0964 3.3434C32.864 2.44706 32.2951 1.67481 31.508 1.18703V1.183Z" fill="#5788EA"/>
</svg>
