<svg width="191" height="75" viewBox="0 0 191 75" fill="none" xmlns="http://www.w3.org/2000/svg">
<path d="M57.421 37.5591C57.2027 37.5878 56.9949 37.6705 56.8166 37.7998C56.6383 37.9291 56.495 38.1007 56.3998 38.2993C56.3046 38.4979 56.2604 38.717 56.2713 38.937C56.2821 39.157 56.3477 39.3708 56.462 39.5591L56.474 39.5791C56.5562 39.3382 56.6514 39.1018 56.759 38.8711C56.7538 38.615 56.8114 38.3615 56.9268 38.1328C57.0422 37.9041 57.2119 37.7071 57.421 37.5591Z" fill="#A0CBFA"/>
<path d="M44.448 56.5132C44.4821 56.47 44.5192 56.4292 44.559 56.3911L44.859 54.1152C44.744 54.0782 44.631 54.0332 44.518 53.9912C44.4987 54.8319 44.4753 55.6725 44.448 56.5132Z" fill="#A0CBFA"/>
<path d="M77.494 24.7151C78.0068 22.799 77.7703 20.7598 76.8327 19.0119C75.8951 17.264 74.3269 15.939 72.447 15.3064C72.418 13.7386 72.0178 12.1998 71.2792 10.8166C70.5406 9.43346 69.4846 8.24544 68.1979 7.34933C66.9112 6.45323 65.4303 5.87493 63.8769 5.66183C62.3234 5.44874 60.7415 5.60674 59.261 6.12326C57.9714 4.32194 56.273 2.85231 54.3052 1.83468C52.3374 0.817059 50.1564 0.280454 47.941 0.269253C45.0492 0.268876 42.2298 1.1734 39.878 2.85617C39.0335 1.92936 37.9811 1.21615 36.8074 0.775112C35.6336 0.334079 34.372 0.177719 33.1261 0.319058C31.8802 0.460396 30.6856 0.895348 29.6405 1.5881C28.5954 2.28085 27.7295 3.21198 27.114 4.30441C26.767 4.28441 26.414 4.24435 26.075 4.24435C21.9565 4.26741 17.981 5.75706 14.8614 8.44601C11.7418 11.135 9.68219 14.8472 9.05202 18.9172C7.84044 19.0845 6.68413 19.5306 5.67383 20.2199C4.66354 20.9093 3.82676 21.8232 3.22914 22.8903C2.63153 23.9575 2.28936 25.1487 2.22948 26.3703C2.1696 27.5919 2.39364 28.8109 2.88402 29.9314C1.42449 32.2019 0.73691 34.8827 0.923571 37.5754C1.11023 40.2681 2.16116 42.8287 3.92002 44.8762C4.42368 47.3126 5.45135 49.6105 6.93172 51.6101C8.41209 53.6097 10.3097 55.2633 12.493 56.4563C8.65301 61.1313 7.77202 68.496 7.57502 71.676C7.55358 72.0369 7.60628 72.3987 7.72985 72.7385C7.85342 73.0782 8.04525 73.3888 8.29352 73.6516C8.54179 73.9144 8.84125 74.1237 9.17343 74.2663C9.50562 74.409 9.8635 74.4821 10.225 74.4812H14.268C14.8889 74.4846 15.4914 74.2713 15.9719 73.8781C16.4524 73.4849 16.7806 72.9366 16.9 72.3274C17.263 70.3854 18.65 66.8714 23.843 65.1404C31.843 62.4743 33.743 59.5021 33.993 54.5471C35.2712 54.4607 36.5379 54.2498 37.775 53.9172C37.793 53.2882 37.814 52.659 37.823 52.03C37.815 51.747 37.806 51.4644 37.803 51.1814C35.7631 51.8265 33.6182 52.0737 31.485 51.9094C30.1778 51.8218 28.885 51.5843 27.632 51.2014C27.4656 51.1503 27.2908 51.1322 27.1175 51.1486C26.9443 51.1651 26.776 51.2156 26.6222 51.2971C26.4684 51.3786 26.3322 51.4896 26.2213 51.6237C26.1105 51.7579 26.0271 51.9129 25.976 52.0793C25.9249 52.2457 25.9071 52.4202 25.9236 52.5935C25.9401 52.7667 25.9905 52.9353 26.072 53.0891C26.1536 53.2429 26.2646 53.3791 26.3988 53.49C26.5329 53.6008 26.6876 53.684 26.854 53.7351C28.2907 54.1749 29.773 54.4486 31.272 54.551H31.344C31.151 58.277 29.839 60.3452 23.005 62.6242C16.282 64.8642 14.673 69.8131 14.295 71.8371H10.225C10.412 68.8031 11.262 61.5451 15.025 57.5891C15.9754 57.9258 16.954 58.1771 17.949 58.3401C18.019 58.3521 18.09 58.3582 18.161 58.3581C18.496 58.3605 18.8195 58.236 19.0663 58.0095C19.3131 57.783 19.465 57.4714 19.4913 57.1374C19.5177 56.8035 19.4166 56.4721 19.2083 56.2097C19.0001 55.9473 18.7002 55.7736 18.369 55.7234C16.105 55.3543 13.9612 54.452 12.1147 53.091C10.2681 51.7301 8.77171 49.9495 7.74901 47.8962C9.51492 48.8183 11.4766 49.3024 13.4687 49.3078C15.4609 49.3132 17.4252 48.8395 19.196 47.927C20.1984 47.425 21.1256 46.7856 21.951 46.0271C23.512 46.7665 25.3009 46.8634 26.9327 46.2971C28.5644 45.7308 29.9087 44.5467 30.676 42.9992C30.755 42.8436 30.8024 42.6737 30.8157 42.4997C30.8289 42.3257 30.8077 42.1509 30.7532 41.9851C30.6987 41.8193 30.612 41.6661 30.4982 41.5339C30.3843 41.4017 30.2454 41.293 30.0895 41.2146C29.9336 41.1361 29.7638 41.0895 29.5897 41.0769C29.4157 41.0642 29.2409 41.0858 29.0753 41.1408C28.9097 41.1959 28.7566 41.2833 28.6247 41.3977C28.4929 41.512 28.3849 41.6512 28.307 41.8073C27.907 42.6093 27.2478 43.2527 26.4363 43.633C25.6247 44.0133 24.7085 44.1083 23.8363 43.9026C22.964 43.6968 22.1868 43.2021 21.6308 42.4992C21.0747 41.7964 20.7725 40.9262 20.773 40.03C20.77 39.4149 20.9122 38.8078 21.188 38.258C21.271 38.102 21.322 37.9311 21.338 37.7551C21.354 37.579 21.3346 37.4016 21.2811 37.2331C21.2275 37.0647 21.1409 36.9086 21.0261 36.7741C20.9114 36.6396 20.771 36.5294 20.6131 36.4499C20.4552 36.3704 20.283 36.3233 20.1066 36.3112C19.9303 36.2992 19.7533 36.3223 19.586 36.3796C19.4188 36.4369 19.2648 36.527 19.1329 36.6447C19.001 36.7624 18.8939 36.9055 18.818 37.0652C18.2299 38.2398 18.005 39.5629 18.1721 40.8659C18.3392 42.1689 18.8906 43.3927 19.756 44.3811C19.2137 44.8402 18.6213 45.2369 17.99 45.5632C16.5988 46.2874 15.0524 46.6623 13.484 46.656C12.0985 46.6515 10.7291 46.3592 9.46276 45.7971C8.1964 45.235 7.06079 44.4158 6.12802 43.3913L6.09702 43.3581H6.10501C4.77892 41.8917 3.92322 40.0612 3.6485 38.1032C3.37379 36.1453 3.6927 34.15 4.56401 32.3752C5.21583 33.0376 5.97828 33.581 6.81702 33.9812C7.13444 34.1243 7.49545 34.1368 7.82198 34.0158C8.1485 33.8949 8.41429 33.6501 8.56186 33.3347C8.70944 33.0193 8.72694 32.659 8.61057 32.3308C8.4942 32.0026 8.25331 31.7332 7.94002 31.5813C6.93885 31.1127 6.10615 30.3475 5.55501 29.3894C4.95229 28.3292 4.73361 27.0935 4.93584 25.8908C5.13807 24.6882 5.74885 23.592 6.66516 22.7873C7.58148 21.9826 8.74726 21.5186 9.96593 21.4734C11.1846 21.4281 12.3816 21.8047 13.355 22.5393C13.4943 22.6437 13.6528 22.7197 13.8214 22.7629C13.99 22.8061 14.1655 22.8154 14.3378 22.7907C14.5101 22.7661 14.6758 22.7076 14.8255 22.6189C14.9753 22.5301 15.1061 22.4129 15.2105 22.2736C15.3149 22.1344 15.3909 21.976 15.434 21.8073C15.4772 21.6387 15.4867 21.463 15.4621 21.2907C15.4374 21.1184 15.379 20.9527 15.2903 20.8029C15.2016 20.6532 15.0843 20.5226 14.945 20.4182C13.9898 19.7052 12.8855 19.2182 11.715 18.9934C12.3168 15.6164 14.0834 12.5571 16.7074 10.3479C19.3314 8.13859 22.6468 6.91876 26.077 6.90109H26.196C26.119 7.33859 26.0791 7.78205 26.077 8.22628C26.077 8.5777 26.2166 8.91481 26.4651 9.1633C26.7136 9.41178 27.0506 9.55099 27.402 9.55099C27.7534 9.55099 28.0905 9.41178 28.3389 9.1633C28.5874 8.91481 28.727 8.5777 28.727 8.22628C28.727 6.82064 29.2854 5.47267 30.2793 4.47873C31.2733 3.48478 32.6214 2.92599 34.027 2.92599C35.4327 2.92599 36.7807 3.48478 37.7747 4.47873C38.7686 5.47267 39.327 6.82064 39.327 8.22628C39.327 8.57756 39.4666 8.91442 39.715 9.16281C39.9633 9.4112 40.3002 9.5505 40.6515 9.5505C41.0028 9.5505 41.3397 9.4112 41.5881 9.16281C41.8365 8.91442 41.976 8.57756 41.976 8.22628C41.9772 7.14352 41.7549 6.0722 41.323 5.07931C43.2446 3.67823 45.5619 2.92394 47.94 2.92599C49.8962 2.93213 51.8176 3.44344 53.5181 4.41037C55.2186 5.37729 56.6405 6.7671 57.646 8.44503C58.1755 9.34342 58.5768 10.3114 58.838 11.321C58.8821 11.4895 58.9589 11.648 59.0641 11.7868C59.1693 11.9256 59.3007 12.0421 59.451 12.1301C59.6013 12.2181 59.7675 12.2758 59.94 12.2995C60.1125 12.3233 60.288 12.3128 60.4565 12.2688C60.625 12.2247 60.7832 12.1479 60.922 12.0427C61.0608 11.9375 61.1775 11.8058 61.2655 11.6555C61.3534 11.5052 61.411 11.3392 61.4347 11.1667C61.4585 10.9942 61.4481 10.8186 61.404 10.6501C61.2036 9.91016 60.9424 9.18834 60.623 8.49142C61.6483 8.20613 62.7239 8.15033 63.7731 8.32833C64.8223 8.50634 65.8194 8.91374 66.6932 9.52121C67.567 10.1287 68.296 10.921 68.8284 11.8425C69.3607 12.764 69.6833 13.7918 69.773 14.8523C68.5422 14.8522 67.3285 15.1408 66.2294 15.695C65.1304 16.2492 64.1767 17.0534 63.445 18.0432C63.3361 18.1821 63.2561 18.3412 63.2095 18.5114C63.163 18.6817 63.1509 18.8599 63.174 19.0349C63.1971 19.2099 63.2549 19.3781 63.344 19.5305C63.4331 19.6828 63.5517 19.8162 63.6929 19.9221C63.8341 20.028 63.995 20.1048 64.1662 20.1477C64.3375 20.1906 64.5155 20.1989 64.69 20.1721C64.8644 20.1453 65.0318 20.0837 65.1822 19.9914C65.3326 19.8991 65.4631 19.7774 65.566 19.634C66.0556 18.9703 66.6947 18.4315 67.4316 18.0612C68.1685 17.691 68.9823 17.4998 69.807 17.5031C70.9676 17.5016 72.0966 17.8811 73.0206 18.5832C73.9447 19.2854 74.6127 20.2713 74.9222 21.3899C75.2316 22.5084 75.1653 23.6979 74.7336 24.7751C74.3018 25.8524 73.5284 26.7581 72.532 27.3532C72.2306 27.5341 72.0134 27.8271 71.9281 28.1682C71.8429 28.5092 71.8967 28.8702 72.0775 29.1716C72.2584 29.473 72.5516 29.6904 72.8926 29.7756C73.2337 29.8608 73.5946 29.8071 73.896 29.6262C74.7696 29.0937 75.5319 28.3974 76.141 27.5754C77.0412 29.2671 77.5792 31.1277 77.7207 33.0388C77.8622 34.9499 77.6042 36.8692 76.963 38.675C77.4819 39.9529 77.8293 41.2942 77.996 42.6633C79.6557 39.9445 80.4917 36.803 80.403 33.6189C80.3143 30.4347 79.3045 27.3446 77.496 24.7224L77.494 24.7151Z" fill="#A0CBFA"/>
<path d="M43.369 31.326C42.639 31.3876 41.9091 31.205 41.2941 30.8069C41.0611 30.5826 40.8822 30.3079 40.771 30.0042C40.6598 29.7005 40.6191 29.3758 40.6521 29.054V28.264C40.6168 27.9411 40.6615 27.6143 40.7822 27.3128C40.9029 27.0113 41.0958 26.7444 41.344 26.535C41.9689 26.1628 42.6925 25.9903 43.4181 26.0408C44.1636 25.9755 44.9098 26.1579 45.541 26.5599C45.7705 26.7756 45.9477 27.0406 46.059 27.3353C46.1703 27.6299 46.2127 27.946 46.1831 28.2596V29.0496C46.221 29.3776 46.1804 29.7102 46.0646 30.0193C45.9488 30.3285 45.7611 30.6056 45.5171 30.8279C44.8693 31.211 44.1192 31.3849 43.369 31.326ZM45.887 58.24C45.8971 58.5709 45.8412 58.9002 45.7225 59.2093C45.6039 59.5183 45.4249 59.8007 45.1961 60.0398C44.7181 60.4992 44.0809 60.7557 43.4181 60.7557C42.7552 60.7557 42.118 60.4992 41.6401 60.0398C41.411 59.8009 41.2318 59.5184 41.1132 59.2093C40.9945 58.9002 40.9387 58.571 40.9491 58.24V37.0999C40.9394 36.7669 40.998 36.4353 41.1211 36.1258C41.2442 35.8162 41.4293 35.535 41.6651 35.2996C42.1381 34.8405 42.7714 34.5838 43.4306 34.5838C44.0898 34.5838 44.723 34.8405 45.1961 35.2996C45.4247 35.539 45.6034 35.8217 45.7221 36.1307C45.8407 36.4397 45.8968 36.7691 45.887 37.0999V58.24Z" fill="#A0CBFA"/>
<path d="M65.9381 34.19C67.859 34.072 69.7661 34.5835 71.3701 35.647C72.6598 36.627 73.6026 37.9934 74.0611 39.5469C74.5915 41.3166 74.8497 43.1567 74.8271 45.004V58.2388C74.8364 58.5718 74.7777 58.9035 74.6546 59.2129C74.5315 59.5224 74.3466 59.8035 74.1111 60.0391C73.8833 60.2719 73.6103 60.4555 73.3088 60.5787C73.0073 60.7018 72.6837 60.7617 72.3581 60.7549C72.0246 60.7648 71.6927 60.7067 71.3826 60.5836C71.0726 60.4604 70.7909 60.275 70.555 60.0391C70.3191 59.8032 70.1339 59.5215 70.0108 59.2115C69.8877 58.9014 69.8293 58.5694 69.8391 58.2359V45.0499C69.8552 43.9679 69.6882 42.8915 69.3451 41.8653C69.0375 40.9574 68.4496 40.1705 67.6661 39.6182C66.6593 39.0007 65.487 38.7074 64.3081 38.7789C63.0707 38.7517 61.8468 39.0408 60.7521 39.6182C59.7675 40.1418 58.9393 40.9172 58.3521 41.8653C57.7699 42.8244 57.4704 43.928 57.4881 45.0499V58.2359C57.4975 58.5689 57.4387 58.9005 57.3154 59.21C57.1921 59.5195 57.0069 59.8008 56.7711 60.0362C56.5434 60.2691 56.2704 60.4526 55.9689 60.5757C55.6673 60.6989 55.3437 60.759 55.0181 60.752C54.6847 60.7617 54.3529 60.7033 54.0429 60.5801C53.733 60.457 53.4515 60.2716 53.2157 60.0357C52.9799 59.7998 52.7948 59.5181 52.6717 59.2081C52.5487 58.8981 52.4903 58.5663 52.5001 58.233V37.2999C52.4904 36.9665 52.5489 36.6347 52.672 36.3248C52.7951 36.0148 52.9802 35.7335 53.216 35.4976C53.4518 35.2618 53.7332 35.0764 54.0431 34.9532C54.353 34.83 54.6847 34.7713 55.0181 34.7808C55.3438 34.7742 55.6673 34.8347 55.9688 34.9581C56.2703 35.0814 56.5434 35.2652 56.7711 35.4981C57.0069 35.7334 57.1922 36.0143 57.3155 36.3238C57.4388 36.6333 57.4975 36.9649 57.4881 37.2979V40.064L56.5981 40.5582C56.8685 39.7592 57.2782 39.0142 57.8081 38.358C58.4197 37.5825 59.125 36.8861 59.9081 36.2842C60.7457 35.6345 61.6787 35.1178 62.6741 34.753C63.7197 34.3716 64.8252 34.181 65.9381 34.19Z" fill="#A0CBFA"/>
<path d="M80.16 56.7102C79.8604 56.2329 79.7219 55.672 79.765 55.1101C79.7963 54.7854 79.9074 54.4734 80.0883 54.2019C80.2692 53.9304 80.5144 53.7083 80.802 53.5544C81.2302 53.2662 81.7452 53.1353 82.259 53.1843C82.8197 53.2596 83.3357 53.5307 83.716 53.9495C84.5917 54.9346 85.6373 55.7542 86.803 56.3694C88.0851 56.9951 89.5 57.2999 90.926 57.258C91.6103 57.221 92.2888 57.1136 92.951 56.9372C93.6198 56.7688 94.2328 56.4284 94.729 55.9495C94.9903 55.6692 95.191 55.3376 95.3185 54.9763C95.446 54.615 95.4975 54.2315 95.47 53.8494C95.4878 53.4864 95.4263 53.1236 95.2897 52.7869C95.1531 52.4501 94.9447 52.1472 94.679 51.8992C94.0678 51.3719 93.3648 50.9618 92.605 50.6892C91.6842 50.34 90.7444 50.043 89.79 49.8C88.736 49.5034 87.6823 49.1742 86.629 48.8122C85.6104 48.4675 84.64 47.9941 83.741 47.404C82.872 46.8331 82.152 46.0631 81.641 45.1575C81.0837 44.1106 80.8113 42.9355 80.851 41.7502C80.8162 40.3103 81.2686 38.9009 82.135 37.7502C83.0293 36.6013 84.2024 35.7 85.543 35.1321C86.9749 34.5035 88.5233 34.1839 90.087 34.1941C91.1182 34.1992 92.1453 34.3235 93.148 34.5642C94.2148 34.8164 95.2442 35.2068 96.21 35.7253C97.1907 36.2462 98.0624 36.95 98.778 37.7991C99.1137 38.2425 99.3112 38.7753 99.346 39.3303C99.3437 39.6157 99.2825 39.8973 99.1662 40.158C99.0499 40.4186 98.8811 40.6526 98.6702 40.845C98.4594 41.0373 98.2111 41.1842 97.9409 41.2761C97.6707 41.3681 97.3844 41.403 97.1 41.3791C96.5882 41.3504 96.1008 41.1509 95.716 40.8122C95.0752 40.0102 94.2435 39.3816 93.297 38.9841C92.2336 38.542 91.0905 38.3234 89.939 38.342C89.2812 38.3463 88.6262 38.4293 87.988 38.5891C87.3449 38.7375 86.756 39.0627 86.288 39.5281C86.0431 39.8019 85.8557 40.1223 85.737 40.47C85.6183 40.8177 85.5707 41.1855 85.597 41.552C85.581 41.9207 85.6455 42.2889 85.7861 42.6301C85.9267 42.9714 86.1399 43.2776 86.411 43.5281C87.0422 44.0726 87.7716 44.4918 88.56 44.7624C89.5139 45.1122 90.4864 45.4087 91.473 45.6511C92.493 45.9178 93.5054 46.2304 94.51 46.5891C95.4759 46.9318 96.3901 47.4058 97.227 47.9973C98.0417 48.5831 98.7163 49.3425 99.202 50.2204C99.7488 51.2793 100.013 52.4612 99.968 53.6521C100.007 55.1507 99.5077 56.6136 98.56 57.7751C97.6082 58.9211 96.3861 59.8125 95.004 60.3684C93.5719 60.9614 92.0361 61.2633 90.486 61.2571C88.5745 61.2497 86.6792 60.9074 84.886 60.2454C82.999 59.5542 81.356 58.3251 80.16 56.7102Z" fill="#A0CBFA"/>
<path d="M107.421 31.3261C106.691 31.388 105.962 31.2054 105.347 30.807C105.114 30.5827 104.935 30.308 104.824 30.0043C104.713 29.7006 104.672 29.3758 104.705 29.0541V28.264C104.67 27.9413 104.715 27.6148 104.835 27.3134C104.955 27.0119 105.148 26.7447 105.396 26.535C106.021 26.163 106.745 25.9905 107.47 26.0409C108.216 25.9753 108.962 26.1578 109.594 26.5599C109.823 26.7758 110 27.0412 110.112 27.3358C110.223 27.6304 110.265 27.9461 110.236 28.2597V29.0497C110.274 29.3777 110.233 29.7103 110.117 30.0194C110.001 30.3286 109.813 30.6058 109.569 30.828C108.921 31.2111 108.171 31.385 107.421 31.3261ZM109.939 58.2401C109.949 58.571 109.894 58.9003 109.775 59.2094C109.656 59.5184 109.477 59.8009 109.248 60.0399C108.77 60.4992 108.133 60.7557 107.47 60.7557C106.807 60.7557 106.17 60.4992 105.692 60.0399C105.463 59.8009 105.284 59.5184 105.165 59.2094C105.047 58.9003 104.991 58.571 105.001 58.2401V37.1C104.992 36.767 105.05 36.4354 105.173 36.1259C105.297 35.8164 105.482 35.5352 105.717 35.2997C106.19 34.8406 106.823 34.5839 107.483 34.5839C108.142 34.5839 108.775 34.8406 109.248 35.2997C109.477 35.5388 109.656 35.8212 109.775 36.1303C109.893 36.4393 109.949 36.7691 109.939 37.1V58.2401Z" fill="#A0CBFA"/>
<path d="M127.422 34.1898C128.738 34.1782 130.044 34.4124 131.274 34.8807C132.387 35.3016 133.429 35.8933 134.36 36.6346C135.153 37.2575 135.845 37.9999 136.41 38.8348C136.839 39.4101 137.095 40.0954 137.15 40.8109L136.064 40.8597V36.909C136.052 36.2484 136.3 35.6092 136.756 35.1307C136.982 34.8871 137.258 34.6951 137.564 34.5672C137.871 34.4394 138.202 34.3789 138.534 34.39C138.864 34.3789 139.192 34.4366 139.498 34.5599C139.804 34.6832 140.081 34.8692 140.311 35.1058C140.54 35.3448 140.719 35.6273 140.838 35.9364C140.957 36.2454 141.013 36.5747 141.003 36.9056V58.7337C141.105 61.1245 140.485 63.4906 139.225 65.5247C138.074 67.2579 136.431 68.6078 134.508 69.4017C132.464 70.2407 130.273 70.6607 128.064 70.6361C127.085 70.6195 126.109 70.5117 125.15 70.3148C124.107 70.1202 123.076 69.8646 122.063 69.5496C121.367 69.3682 120.707 69.0677 120.113 68.661C119.473 68.3773 118.944 67.8911 118.606 67.2777C118.484 67.0328 118.419 66.7639 118.415 66.4906C118.41 66.2172 118.467 65.9467 118.581 65.6981C118.679 65.3887 118.849 65.1064 119.076 64.8748C119.304 64.6432 119.582 64.4688 119.89 64.3651C120.539 64.2044 121.223 64.2562 121.841 64.513C122.137 64.6117 122.639 64.7927 123.347 65.056C124.115 65.3375 124.898 65.5764 125.693 65.7718C126.484 65.9772 127.296 66.0849 128.113 66.0926C130.247 66.2443 132.361 65.593 134.04 64.266C134.717 63.6399 135.249 62.8735 135.598 62.0204C135.948 61.1672 136.107 60.248 136.064 59.327V54.8817L136.608 55.2279C136.468 55.9779 136.145 56.6817 135.669 57.2777C135.103 58.0237 134.429 58.6811 133.669 59.2279C132.808 59.8494 131.859 60.3404 130.854 60.6849C129.8 61.0604 128.689 61.2523 127.57 61.2528C125.345 61.2855 123.158 60.677 121.27 59.4998C119.401 58.3255 117.882 56.6713 116.87 54.7098C115.814 52.5315 115.265 50.1424 115.265 47.7215C115.265 45.3007 115.814 42.911 116.87 40.7328C117.877 38.7768 119.385 37.1237 121.241 35.9427C123.088 34.7723 125.235 34.1634 127.422 34.1898ZM128.162 38.783C126.664 38.7514 125.189 39.1539 123.915 39.9427C122.689 40.7255 121.699 41.8268 121.051 43.1288C120.368 44.5635 120.013 46.1329 120.013 47.722C120.013 49.3112 120.368 50.8801 121.051 52.3148C121.703 53.6202 122.692 54.728 123.915 55.5238C125.187 56.2954 126.646 56.7054 128.134 56.7098C129.622 56.7142 131.083 56.3127 132.36 55.5487C133.591 54.7619 134.582 53.6513 135.224 52.3387C135.932 50.9037 136.288 49.321 136.262 47.721C136.289 46.1293 135.933 44.554 135.224 43.1288C134.576 41.8264 133.586 40.7249 132.36 39.9427C131.102 39.1583 129.644 38.7557 128.162 38.783Z" fill="#A0CBFA"/>
<path d="M160.954 34.3379C162.828 34.2226 164.688 34.7353 166.238 35.795C167.508 36.7944 168.433 38.168 168.88 39.7212C169.407 41.483 169.666 43.314 169.646 45.1529V58.2403C169.656 58.5733 169.597 58.9044 169.474 59.2139C169.351 59.5235 169.166 59.8047 168.93 60.0401C168.702 60.273 168.429 60.4565 168.128 60.5796C167.826 60.7028 167.503 60.7628 167.177 60.7559C166.844 60.7657 166.512 60.7076 166.202 60.5845C165.892 60.4614 165.61 60.276 165.374 60.0401C165.138 59.8042 164.953 59.5225 164.83 59.2125C164.707 58.9024 164.648 58.5703 164.658 58.2369V45.15C164.671 44.0862 164.513 43.0276 164.189 42.0142C163.902 41.1109 163.343 40.318 162.589 39.7432C161.642 39.1123 160.515 38.8086 159.379 38.879C158.178 38.8577 156.994 39.1561 155.946 39.7432C154.982 40.2747 154.18 41.0587 153.628 42.0113C153.075 42.9639 152.792 44.0489 152.81 45.15V58.2369C152.82 58.5699 152.761 58.9014 152.638 59.211C152.515 59.5206 152.33 59.8019 152.094 60.0372C151.867 60.2699 151.594 60.4536 151.292 60.5767C150.991 60.6999 150.668 60.7598 150.342 60.753C150.009 60.7628 149.677 60.7042 149.367 60.5811C149.057 60.458 148.775 60.2731 148.539 60.0372C148.303 59.8013 148.118 59.5196 147.995 59.2095C147.872 58.8995 147.813 58.5674 147.823 58.2339V26.7271C147.813 26.3937 147.872 26.0615 147.995 25.7515C148.118 25.4415 148.303 25.1602 148.539 24.9244C148.775 24.6885 149.057 24.5031 149.367 24.3799C149.677 24.2568 150.009 24.1984 150.342 24.2081C150.668 24.2015 150.991 24.2617 151.292 24.3848C151.593 24.508 151.866 24.6913 152.094 24.9239C152.33 25.1592 152.515 25.4405 152.638 25.7501C152.761 26.0596 152.82 26.3912 152.81 26.7242V40.2061L151.922 40.7003C152.19 39.9034 152.581 39.1534 153.082 38.4781C153.653 37.6923 154.336 36.9932 155.107 36.4029C155.926 35.7713 156.833 35.264 157.799 34.897C158.807 34.5184 159.877 34.3288 160.954 34.3379Z" fill="#A0CBFA"/>
<path d="M176.164 35.079H187.77C188.077 35.0728 188.381 35.1282 188.666 35.2426C188.95 35.357 189.208 35.5278 189.425 35.7445C189.642 35.9613 189.813 36.2199 189.927 36.5043C190.042 36.7887 190.097 37.0933 190.091 37.3998C190.1 37.703 190.046 38.0048 189.931 38.2856C189.817 38.5664 189.644 38.8198 189.425 39.0297C189.206 39.2413 188.946 39.4073 188.662 39.5175C188.378 39.6277 188.075 39.6801 187.77 39.6718H176.164C175.858 39.6775 175.553 39.6214 175.269 39.5068C174.985 39.3921 174.727 39.2215 174.51 39.0048C174.294 38.7881 174.123 38.5302 174.008 38.246C173.894 37.9618 173.837 37.6574 173.843 37.351C173.834 37.0477 173.888 36.7456 174.003 36.4648C174.118 36.1839 174.291 35.9308 174.51 35.7211C174.729 35.5094 174.988 35.3436 175.272 35.2333C175.556 35.1231 175.86 35.0706 176.164 35.079ZM181.35 28.6591C181.68 28.6478 182.009 28.7057 182.315 28.829C182.621 28.9523 182.898 29.1381 183.128 29.3749C183.357 29.6141 183.536 29.8964 183.655 30.2055C183.773 30.5145 183.829 30.8438 183.819 31.1747V54.0898C183.799 54.5846 183.902 55.0768 184.119 55.5219C184.29 55.8609 184.58 56.1249 184.934 56.2631C185.273 56.3945 185.633 56.462 185.996 56.4628C186.328 56.4684 186.657 56.4004 186.959 56.2631C187.278 56.1228 187.623 56.0543 187.971 56.0629C188.181 56.0697 188.386 56.122 188.574 56.2157C188.762 56.3095 188.927 56.4424 189.058 56.6059C189.405 57.0187 189.582 57.5483 189.552 58.0868C189.539 58.4957 189.412 58.893 189.185 59.2333C188.958 59.5737 188.641 59.8439 188.268 60.0131C187.429 60.5026 186.474 60.7582 185.502 60.7538C184.841 60.7467 184.182 60.6974 183.527 60.6059C182.753 60.502 182.006 60.2507 181.327 59.8652C180.565 59.4148 179.949 58.755 179.55 57.9648C179.013 56.8157 178.767 55.5526 178.833 54.2861V31.1728C178.824 30.8376 178.885 30.5043 179.013 30.1943C179.141 29.8842 179.332 29.6046 179.574 29.373C179.808 29.1417 180.085 28.9594 180.39 28.8368C180.695 28.7142 181.021 28.6538 181.35 28.6591Z" fill="#A0CBFA"/>
<path d="M33.3 28.623C33.4334 28.5872 33.5585 28.5256 33.668 28.4414C33.7776 28.3572 33.8695 28.252 33.9385 28.1323C34.0075 28.0126 34.0522 27.8806 34.0702 27.7437C34.0881 27.6067 34.0789 27.4674 34.043 27.334C33.4136 24.9613 31.9142 22.9127 29.843 21.5952C30.2153 20.7305 30.4069 19.7984 30.406 18.8569C30.3895 18.5897 30.2717 18.3387 30.0766 18.1553C29.8815 17.9718 29.6238 17.8696 29.356 17.8696C29.0882 17.8696 28.8305 17.9718 28.6354 18.1553C28.4403 18.3387 28.3225 18.5897 28.306 18.8569C28.3047 20.1395 27.7947 21.3694 26.8879 22.2764C25.9811 23.1834 24.7515 23.6932 23.469 23.6948C23.3257 23.686 23.182 23.7066 23.0469 23.7554C22.9119 23.8041 22.7882 23.8801 22.6836 23.9785C22.5789 24.0769 22.4956 24.1958 22.4386 24.3276C22.3816 24.4595 22.3522 24.6015 22.3522 24.7451C22.3522 24.8887 22.3816 25.0308 22.4386 25.1626C22.4956 25.2944 22.5789 25.4129 22.6836 25.5112C22.7882 25.6096 22.9119 25.6856 23.0469 25.7344C23.182 25.7831 23.3257 25.8038 23.469 25.7949C24.4688 25.7952 25.4568 25.5794 26.3651 25.1616C27.2734 24.7439 28.0805 24.1343 28.731 23.375C30.3486 24.4122 31.5191 26.0177 32.012 27.875C32.0842 28.1444 32.2604 28.3742 32.502 28.5137C32.7435 28.6532 33.0305 28.6912 33.3 28.6191V28.623Z" fill="#A0CBFA"/>
</svg>
