<svg width="150" height="40" viewBox="0 0 175 69" fill="none" xmlns="http://www.w3.org/2000/svg">
<path d="M52.3329 34.6187C52.1683 34.6402 52.0099 34.6958 51.8678 34.7817C51.7304 34.8642 51.6106 34.9733 51.5153 35.1021C51.4199 35.2308 51.3509 35.3768 51.3121 35.5322C51.2734 35.6877 51.2659 35.8494 51.2897 36.0078C51.3135 36.1663 51.3682 36.3188 51.4508 36.4561L51.4608 36.4751C51.5368 36.2532 51.6245 36.0352 51.7238 35.8228C51.7195 35.5876 51.7726 35.3553 51.8788 35.1455C51.9849 34.9357 52.141 34.7545 52.3329 34.6187V34.6187Z" fill="#A0CBFA"/>
<path d="M40.3889 52.0688C40.4193 52.029 40.4528 51.9917 40.489 51.957L40.7678 49.8569C40.6618 49.8219 40.5589 49.7807 40.4539 49.7417C40.4359 50.519 40.4142 51.2948 40.3889 52.0688Z" fill="#A0CBFA"/>
<path d="M70.814 22.793C71.2869 21.0289 71.0695 19.1509 70.2061 17.5415C69.3427 15.9321 67.8983 14.7124 66.167 14.1309C66.1404 12.6874 65.7718 11.2711 65.0918 9.99756C64.4118 8.72405 63.4398 7.62976 62.2551 6.80469C61.0705 5.97961 59.7069 5.44718 58.2766 5.25098C56.8463 5.05477 55.39 5.20021 54.0269 5.67578C52.8395 4.01742 51.2758 2.66449 49.4641 1.72754C47.6525 0.790589 45.6446 0.296676 43.605 0.286133C40.9427 0.286193 38.3471 1.11892 36.1819 2.66797C35.404 1.81517 34.4349 1.15911 33.3543 0.753418C32.2736 0.347727 31.1123 0.203794 29.9653 0.333984C28.8184 0.464175 27.7186 0.864369 26.7564 1.50195C25.7941 2.13954 24.9969 2.9965 24.4299 4.00195C24.1109 3.98295 23.7839 3.9458 23.4739 3.9458C19.6821 3.96699 16.0219 5.33833 13.1497 7.81396C10.2775 10.2896 8.38104 13.7079 7.80079 17.4551C6.68539 17.6094 5.62098 18.02 4.69093 18.6548C3.76088 19.2896 2.99063 20.1313 2.44044 21.1138C1.89025 22.0962 1.57505 23.1927 1.51979 24.3174C1.46452 25.4421 1.67062 26.564 2.12184 27.5957C0.778284 29.6861 0.145446 32.1543 0.317149 34.6333C0.488852 37.1123 1.45605 39.4698 3.07496 41.355C3.5392 43.5982 4.48556 45.7136 5.84864 47.5547C7.21172 49.3957 8.95896 50.9184 10.969 52.0171C7.434 56.3171 6.62293 63.1018 6.44093 66.0298C6.42142 66.362 6.47013 66.6946 6.58399 67.0073C6.69786 67.32 6.87447 67.6063 7.10304 67.8481C7.3316 68.09 7.60734 68.2827 7.9131 68.4141C8.21885 68.5454 8.5481 68.6125 8.88087 68.6118H12.6028C13.1744 68.6147 13.7292 68.4186 14.1716 68.0566C14.614 67.6947 14.9164 67.1897 15.0269 66.6289C15.3609 64.8409 16.637 61.6057 21.419 60.0117C28.783 57.5567 30.5379 54.8208 30.7639 50.2588C31.9404 50.1797 33.1063 49.9854 34.2449 49.6787C34.2619 49.0997 34.2818 48.5209 34.2898 47.9419C34.2828 47.6809 34.274 47.4207 34.271 47.1597C32.393 47.7542 30.4179 47.9821 28.4539 47.8301C27.2504 47.7502 26.0604 47.5314 24.907 47.1787C24.7538 47.1317 24.5929 47.1157 24.4334 47.1309C24.2738 47.146 24.1189 47.1925 23.9773 47.2676C23.8357 47.3427 23.7102 47.4448 23.6082 47.5684C23.5061 47.6919 23.4293 47.8341 23.3823 47.9873C23.3353 48.1405 23.3191 48.3014 23.3342 48.4609C23.3494 48.6205 23.3959 48.7754 23.471 48.917C23.546 49.0586 23.6482 49.1841 23.7717 49.2861C23.8953 49.3882 24.0377 49.4647 24.1909 49.5117C25.5136 49.9161 26.878 50.168 28.2578 50.2627H28.325C28.147 53.6927 26.939 55.5968 20.647 57.6948C14.458 59.7578 12.9759 64.3138 12.6279 66.1768H8.88087C9.05287 63.3848 9.83579 56.7021 13.3008 53.0601C14.1757 53.3704 15.0767 53.6016 15.9929 53.751C16.0589 53.7628 16.1258 53.7686 16.1929 53.7681C16.4992 53.7668 16.7938 53.6502 17.0183 53.4419C17.2429 53.2336 17.3809 52.9484 17.405 52.6431C17.4292 52.3377 17.3379 52.0345 17.1489 51.7935C16.96 51.5524 16.6873 51.3912 16.385 51.3418C14.3006 51.002 12.3266 50.1714 10.6265 48.9185C8.92633 47.6655 7.54867 46.0261 6.60694 44.1357C8.23289 44.9844 10.039 45.4302 11.8731 45.4351C13.7071 45.4399 15.5156 45.004 17.146 44.1641C18.069 43.7003 18.9227 43.1104 19.6829 42.4111C21.12 43.0918 22.767 43.1809 24.2693 42.6597C25.7716 42.1385 27.0091 41.0485 27.7158 39.624C27.8617 39.3347 27.8866 38.9992 27.7852 38.6914C27.6837 38.3837 27.4642 38.1288 27.1748 37.9829C26.8855 37.837 26.5502 37.8121 26.2424 37.9136C25.9347 38.015 25.6798 38.2346 25.5339 38.5239C25.1659 39.2626 24.559 39.8552 23.8118 40.2056C23.0646 40.556 22.221 40.6436 21.4177 40.4541C20.6145 40.2646 19.8988 39.8095 19.387 39.1621C18.8751 38.5147 18.597 37.713 18.5979 36.8877C18.5954 36.3213 18.7263 35.7623 18.98 35.2559C19.1259 34.9665 19.1508 34.631 19.0493 34.3232C18.9991 34.1709 18.9192 34.0298 18.8145 33.9082C18.7097 33.7866 18.5822 33.687 18.439 33.6147C18.1496 33.4689 17.8141 33.444 17.5064 33.5454C17.1986 33.6469 16.9437 33.8664 16.7979 34.1558C16.2566 35.2374 16.0497 36.4561 16.2036 37.6558C16.3575 38.8554 16.8651 39.9821 17.6619 40.8921C17.1623 41.3149 16.6165 41.6798 16.0349 41.98C14.7543 42.6468 13.3308 42.9919 11.887 42.9858C10.6113 42.9817 9.35033 42.7123 8.18434 42.1948C7.01834 41.6773 5.97288 40.9232 5.11402 39.98L5.08595 39.9497H5.09303C3.87244 38.5993 3.08482 36.9139 2.83204 35.1113C2.57926 33.3087 2.87272 31.4719 3.67482 29.8379C4.27478 30.4479 4.97663 30.9484 5.74879 31.3169C6.04199 31.454 6.37786 31.4693 6.68214 31.3589C6.98642 31.2485 7.23423 31.0217 7.37135 30.7285C7.50847 30.4353 7.52346 30.0997 7.4131 29.7954C7.30273 29.4911 7.07617 29.2431 6.78297 29.106C5.85943 28.6757 5.0912 27.9709 4.58302 27.0879C4.03118 26.1121 3.83181 24.9764 4.01881 23.8711C4.20581 22.7658 4.76777 21.7585 5.60987 21.0186C6.45198 20.2786 7.52292 19.8509 8.64308 19.8076C9.76324 19.7644 10.8643 20.108 11.761 20.7808C11.8892 20.8769 12.035 20.9471 12.1902 20.9868C12.3454 21.0266 12.5069 21.0354 12.6655 21.0127C12.8241 20.99 12.9767 20.9361 13.1145 20.8545C13.2524 20.7729 13.3729 20.6653 13.469 20.5371C13.5651 20.4089 13.6351 20.2631 13.6748 20.1079C13.7146 19.9527 13.7234 19.7909 13.7007 19.6323C13.678 19.4737 13.6244 19.321 13.5427 19.1831C13.4611 19.0452 13.353 18.9252 13.2249 18.8291C12.3461 18.1719 11.3296 17.723 10.252 17.5161C10.8059 14.4069 12.4322 11.5901 14.8482 9.55615C17.2641 7.52222 20.3168 6.39963 23.4749 6.38379H23.584C23.5127 6.78657 23.4761 7.19496 23.4749 7.604C23.4749 7.92744 23.6033 8.23761 23.832 8.46631C24.0607 8.69501 24.3709 8.82324 24.6943 8.82324C25.0178 8.82324 25.3279 8.69501 25.5567 8.46631C25.7854 8.23761 25.9138 7.92744 25.9138 7.604C25.9138 6.30948 26.4282 5.06771 27.3435 4.15234C28.2589 3.23698 29.5004 2.72266 30.7949 2.72266C32.0895 2.72266 33.331 3.23698 34.2463 4.15234C35.1617 5.06771 35.6758 6.30948 35.6758 7.604C35.6711 7.76709 35.6994 7.9295 35.7586 8.08154C35.8177 8.23358 35.9068 8.37225 36.0205 8.48926C36.1342 8.60626 36.2701 8.69918 36.4204 8.7627C36.5707 8.82621 36.7324 8.85889 36.8955 8.85889C37.0587 8.85889 37.2201 8.82621 37.3704 8.7627C37.5207 8.69918 37.6566 8.60626 37.7703 8.48926C37.884 8.37225 37.9731 8.23358 38.0322 8.08154C38.0914 7.9295 38.1197 7.76709 38.115 7.604C38.1163 6.60639 37.912 5.61929 37.5149 4.7041C39.2841 3.41436 41.4175 2.71986 43.6069 2.72168C45.408 2.72761 47.1769 3.19901 48.7424 4.08936C50.308 4.9797 51.6172 6.25886 52.543 7.80371C53.0319 8.63012 53.402 9.52115 53.6428 10.4507C53.6808 10.6086 53.7498 10.7578 53.846 10.8887C53.9421 11.0196 54.0636 11.1295 54.2029 11.2129C54.3422 11.2963 54.4967 11.3516 54.6575 11.3745C54.8183 11.3975 54.9821 11.3878 55.1392 11.3467C55.2963 11.3056 55.4436 11.2335 55.5725 11.1348C55.7015 11.036 55.8095 10.9125 55.8901 10.7715C55.9708 10.6305 56.0223 10.4752 56.042 10.314C56.0617 10.1528 56.0491 9.98927 56.0049 9.83301C55.8207 9.15189 55.5802 8.48697 55.2859 7.8457C55.854 7.68659 56.441 7.60487 57.031 7.60205C58.7041 7.60442 60.316 8.23068 61.5515 9.35889C62.787 10.4871 63.557 12.0357 63.7109 13.7017C62.5776 13.7019 61.4602 13.9678 60.4483 14.478C59.4363 14.9883 58.5578 15.7286 57.8838 16.6396C57.698 16.8991 57.6213 17.2212 57.6699 17.5366C57.7185 17.852 57.8888 18.1361 58.1441 18.3276C58.3994 18.5191 58.7195 18.6031 59.0359 18.5615C59.3523 18.5199 59.6398 18.356 59.8369 18.105C60.2872 17.4946 60.8749 16.9986 61.5525 16.6577C62.2301 16.3168 62.9783 16.1408 63.7368 16.1431C64.8054 16.1416 65.845 16.4908 66.6958 17.1372C67.5466 17.7836 68.1618 18.6914 68.4468 19.7212C68.7318 20.751 68.6708 21.846 68.2734 22.8379C67.876 23.8298 67.1641 24.6638 66.2468 25.2119C65.9694 25.3785 65.7696 25.6485 65.6912 25.9624C65.6128 26.2763 65.6623 26.6083 65.8289 26.8857C65.9954 27.1632 66.2654 27.363 66.5794 27.4414C66.8933 27.5198 67.2255 27.4703 67.5029 27.3037C68.3068 26.8134 69.0083 26.1726 69.5689 25.416C70.5507 27.2554 71.0622 29.3091 71.0579 31.394C71.0556 32.8389 70.8081 34.2727 70.3259 35.6348C70.8039 36.811 71.1237 38.0453 71.2769 39.3057C72.8046 36.8023 73.5741 33.9101 73.492 30.9785C73.4098 28.0469 72.4796 25.202 70.814 22.7881V22.793Z" fill="#A0CBFA"/>
<path d="M39.3961 28.8799C38.724 28.9366 38.052 28.7684 37.4859 28.4019C37.2713 28.1954 37.1066 27.9428 37.0042 27.6631C36.9018 27.3835 36.8646 27.0844 36.8951 26.7881V26.0601C36.8626 25.7631 36.9036 25.4625 37.0145 25.1851C37.1254 24.9077 37.3028 24.6616 37.5311 24.4688C38.1066 24.1262 38.7728 23.9674 39.441 24.0137C40.1275 23.9541 40.8145 24.1221 41.3961 24.4917C41.6079 24.6905 41.7712 24.9352 41.8736 25.2071C41.9761 25.4789 42.0148 25.7709 41.9869 26.0601V26.7881C42.0219 27.0901 41.9845 27.396 41.8778 27.6807C41.771 27.9654 41.5979 28.2204 41.3729 28.4248C40.7764 28.7763 40.0862 28.9353 39.3961 28.8799V28.8799ZM41.7139 53.6597C41.7237 53.9646 41.6725 54.2689 41.5633 54.5537C41.4541 54.8386 41.289 55.0986 41.078 55.3189C40.6382 55.7423 40.0515 55.979 39.441 55.979C38.8305 55.979 38.2438 55.7423 37.804 55.3189C37.5927 55.0987 37.4277 54.8387 37.3184 54.5537C37.2092 54.2688 37.1581 53.9647 37.168 53.6597V34.1988C37.1588 33.8919 37.2124 33.5866 37.3258 33.3013C37.4391 33.016 37.6097 32.7569 37.827 32.5401C38.2621 32.1167 38.8453 31.8794 39.4525 31.8794C40.0596 31.8794 40.6428 32.1167 41.078 32.5401C41.289 32.7604 41.4539 33.0203 41.5631 33.3052C41.6723 33.5901 41.7236 33.8938 41.7139 34.1988V53.6597Z" fill="white"/>
<path d="M60.1728 31.5172C61.941 31.4089 63.6962 31.8795 65.1728 32.858C66.3605 33.7607 67.2287 35.019 67.6509 36.4498C68.1388 38.0791 68.3766 39.7735 68.3559 41.4742V53.6632C68.3649 53.9701 68.311 54.2753 68.1975 54.5607C68.084 54.846 67.9131 55.105 67.6958 55.3219C67.4861 55.5363 67.2349 55.7054 66.9573 55.819C66.6797 55.9325 66.3816 55.9881 66.0818 55.982C65.7748 55.9909 65.4694 55.9368 65.1841 55.8233C64.8987 55.7099 64.6395 55.5395 64.4223 55.3224C64.2052 55.1052 64.0348 54.846 63.9214 54.5607C63.808 54.2753 63.7541 53.9701 63.7629 53.6632V41.5231C63.778 40.5267 63.6241 39.5349 63.3078 38.59C63.0257 37.7537 62.4846 37.0292 61.7629 36.5211C60.836 35.9523 59.7564 35.6825 58.6709 35.7482C57.5316 35.7232 56.4048 35.9892 55.397 36.5211C54.492 37.0037 53.731 37.7175 53.1919 38.59C52.6542 39.4727 52.3768 40.4895 52.3918 41.5231V53.6632C52.401 53.9701 52.3472 54.2753 52.2339 54.5607C52.1205 54.846 51.9501 55.1049 51.7329 55.3219C51.5229 55.5362 51.2714 55.7055 50.9936 55.819C50.7159 55.9325 50.4179 55.988 50.1179 55.982C49.8111 55.9907 49.5057 55.9368 49.2204 55.8233C48.9352 55.7099 48.676 55.539 48.459 55.3219C48.242 55.1048 48.0716 54.8459 47.9582 54.5607C47.8449 54.2754 47.791 53.97 47.7998 53.6632V34.3839C47.7908 34.077 47.8447 33.7718 47.958 33.4864C48.0713 33.2011 48.2417 32.9419 48.4587 32.7247C48.6758 32.5076 48.9349 32.3372 49.2202 32.2237C49.5055 32.1103 49.811 32.0562 50.1179 32.065C50.4179 32.0591 50.7159 32.1146 50.9936 32.2281C51.2714 32.3416 51.5229 32.5109 51.7329 32.7252C51.95 32.9422 52.1205 33.2011 52.2339 33.4864C52.3472 33.7717 52.4009 34.0771 52.3918 34.3839V36.9298L51.573 37.3849C51.8225 36.6503 52.1997 35.9655 52.687 35.3619C53.2498 34.6477 53.8989 34.006 54.6199 33.4518C55.3904 32.853 56.2495 32.378 57.166 32.0431C58.1288 31.6891 59.1471 31.5111 60.1728 31.5172V31.5172Z" fill="white"/>
<path d="M73.2678 52.2502C72.9917 51.8095 72.8644 51.2917 72.9048 50.7732C72.9338 50.4742 73.0363 50.1867 73.2029 49.9368C73.3695 49.6868 73.5951 49.4819 73.8599 49.3401C74.2541 49.075 74.728 48.9547 75.2009 48.9993C75.7172 49.0685 76.1923 49.3183 76.542 49.7043C77.3488 50.6106 78.3111 51.3652 79.3838 51.9324C80.5654 52.5091 81.8695 52.79 83.1838 52.7512C83.8139 52.7159 84.4386 52.615 85.0479 52.4509C85.6635 52.296 86.2279 51.9829 86.6848 51.5422C86.9251 51.2841 87.1097 50.9793 87.2271 50.6467C87.3444 50.3142 87.392 49.9609 87.3669 49.6091C87.3838 49.2742 87.3274 48.9395 87.2017 48.6286C87.0759 48.3178 86.8839 48.0383 86.6389 47.8093C86.0764 47.3239 85.4293 46.946 84.73 46.6951C83.8821 46.3737 83.0167 46.1007 82.1379 45.8772C81.1679 45.6045 80.1978 45.301 79.2278 44.967C78.2894 44.6487 77.3956 44.2121 76.5679 43.6672C75.7682 43.1418 75.1059 42.4329 74.636 41.5993C74.1225 40.6352 73.8714 39.5529 73.908 38.4612C73.876 37.1354 74.2923 35.8376 75.0898 34.7781C75.9133 33.7206 76.9935 32.8911 78.2278 32.3689C79.5458 31.7897 80.9713 31.4955 82.4109 31.5051C83.3606 31.5096 84.3066 31.6238 85.23 31.8459C86.212 32.0781 87.1595 32.4375 88.0488 32.9143C88.9514 33.3944 89.7538 34.0424 90.4128 34.824C90.7216 35.2322 90.9034 35.7223 90.9358 36.2331C90.9335 36.4959 90.8771 36.7554 90.77 36.9953C90.6629 37.2353 90.5076 37.4506 90.3135 37.6277C90.1194 37.8048 89.8908 37.9399 89.6421 38.0246C89.3934 38.1094 89.1298 38.1421 88.8679 38.1203C88.3965 38.0942 87.9478 37.9095 87.594 37.5969C87.0038 36.8586 86.2377 36.2806 85.366 35.9153C84.3872 35.5081 83.3349 35.3066 82.2749 35.324C81.668 35.3275 81.0636 35.4037 80.4749 35.551C79.8817 35.6875 79.3385 35.987 78.906 36.4153C78.6803 36.6676 78.5074 36.9626 78.398 37.2829C78.2885 37.6033 78.2446 37.9423 78.2688 38.28C78.2543 38.6193 78.3141 38.9578 78.4436 39.2717C78.5731 39.5857 78.7693 39.8675 79.0188 40.0979C79.5996 40.5995 80.271 40.9856 80.9968 41.2351C81.8756 41.5565 82.7714 41.8294 83.6799 42.053C84.6186 42.2963 85.552 42.5846 86.48 42.9172C87.369 43.2339 88.2102 43.6711 88.98 44.217C89.7302 44.7561 90.3513 45.4548 90.7988 46.2629C91.302 47.238 91.5449 48.3266 91.5039 49.4231C91.5394 50.8045 91.0781 52.1527 90.2039 53.2229C89.3273 54.2777 88.2023 55.0981 86.9299 55.6101C85.6113 56.1561 84.1972 56.434 82.77 56.428C81.0084 56.4218 79.2614 56.1067 77.6089 55.4963C75.8765 54.8604 74.3676 53.7321 73.2678 52.2502V52.2502Z" fill="white"/>
<path d="M98.3728 28.8799C97.7008 28.9367 97.029 28.7685 96.4629 28.4019C96.2481 28.1956 96.0832 27.9428 95.9808 27.6631C95.8783 27.3835 95.8411 27.0844 95.8719 26.7881V26.0601C95.8394 25.7631 95.8806 25.4625 95.9915 25.1851C96.1024 24.9077 96.2796 24.6616 96.5079 24.4688C97.0834 24.1263 97.7499 23.9675 98.418 24.0137C99.1045 23.9541 99.7913 24.1221 100.373 24.4918C100.585 24.6905 100.748 24.9353 100.851 25.2071C100.953 25.4789 100.992 25.771 100.964 26.0601V26.7881C100.999 27.0902 100.962 27.3961 100.855 27.6807C100.748 27.9654 100.575 28.2203 100.35 28.4249C99.7534 28.7763 99.063 28.9353 98.3728 28.8799ZM100.691 53.6597C100.701 53.9647 100.65 54.2689 100.54 54.5538C100.431 54.8386 100.266 55.0986 100.055 55.3189C99.6152 55.7424 99.0285 55.9791 98.418 55.9791C97.8075 55.9791 97.2208 55.7424 96.781 55.3189C96.5698 55.0988 96.4047 54.8387 96.2955 54.5538C96.1862 54.2689 96.1351 53.9647 96.1451 53.6597V34.1988C96.1358 33.8919 96.1894 33.5867 96.3028 33.3013C96.4161 33.016 96.5867 32.757 96.804 32.5401C97.2392 32.1167 97.8223 31.8795 98.4295 31.8795C99.0366 31.8795 99.6198 32.1167 100.055 32.5401C100.266 32.7604 100.431 33.0204 100.54 33.3052C100.649 33.5901 100.701 33.8939 100.691 34.1988V53.6597Z" fill="white"/>
<path d="M116.782 31.5173C117.993 31.5062 119.196 31.7217 120.328 32.153C121.353 32.5405 122.312 33.0856 123.17 33.7683C123.9 34.3409 124.536 35.0233 125.057 35.7912C125.452 36.3203 125.689 36.9507 125.739 37.6091L124.739 37.655V34.0173C124.727 33.4095 124.956 32.8214 125.375 32.3811C125.583 32.1569 125.837 31.9802 126.119 31.8625C126.402 31.7449 126.706 31.6889 127.012 31.6989C127.316 31.6885 127.618 31.7417 127.9 31.8552C128.182 31.9687 128.437 32.1401 128.649 32.3581C128.86 32.5786 129.025 32.8389 129.134 33.1237C129.243 33.4086 129.295 33.7123 129.286 34.0173V54.1169C129.38 56.3179 128.809 58.4963 127.649 60.3689C126.589 61.9648 125.077 63.2083 123.306 63.9392C121.424 64.7115 119.407 65.0976 117.373 65.0749C116.471 65.0601 115.573 64.9614 114.69 64.78C113.73 64.6007 112.781 64.3652 111.848 64.0749C111.207 63.9082 110.599 63.6315 110.053 63.257C109.464 62.9956 108.977 62.5485 108.666 61.9841C108.554 61.7587 108.493 61.5108 108.489 61.259C108.485 61.0072 108.538 60.7578 108.643 60.529C108.733 60.244 108.889 59.9841 109.098 59.7707C109.308 59.5573 109.565 59.3964 109.848 59.301C110.447 59.1522 111.078 59.2001 111.648 59.4372C111.92 59.5279 112.382 59.6946 113.034 59.9372C113.741 60.1966 114.462 60.4166 115.194 60.5969C115.922 60.7861 116.67 60.8856 117.422 60.8923C119.387 61.0317 121.333 60.4316 122.879 59.2102C123.502 58.6339 123.992 57.9282 124.314 57.1428C124.636 56.3573 124.782 55.5113 124.743 54.6633V50.5632L125.243 50.8811C125.115 51.5716 124.818 52.2199 124.379 52.7683C123.858 53.4569 123.237 54.0635 122.537 54.5681C121.744 55.1403 120.871 55.592 119.946 55.9089C118.975 56.2551 117.952 56.4324 116.922 56.4323C114.874 56.463 112.86 55.9024 111.122 54.8181C109.403 53.736 108.006 52.213 107.075 50.4079C106.102 48.4026 105.597 46.2032 105.597 43.9743C105.597 41.7455 106.102 39.5456 107.075 37.5402C108.002 35.7396 109.39 34.2175 111.099 33.1301C112.797 32.0541 114.772 31.494 116.782 31.5173V31.5173ZM117.464 35.7453C116.084 35.7161 114.726 36.0873 113.553 36.8142C112.425 37.5345 111.513 38.5481 110.916 39.7463C110.287 41.0674 109.961 42.5122 109.961 43.9753C109.961 45.4385 110.287 46.8832 110.916 48.2043C111.516 49.4065 112.427 50.4262 113.553 51.1589C114.725 51.8687 116.068 52.2462 117.438 52.2502C118.808 52.2543 120.153 51.8852 121.329 51.1823C122.462 50.4572 123.374 49.4345 123.965 48.2263C124.617 46.9053 124.944 45.4481 124.921 43.9753C124.946 42.5094 124.618 41.0589 123.965 39.7463C123.368 38.5479 122.457 37.5343 121.329 36.8142C120.171 36.0916 118.828 35.7205 117.464 35.7453V35.7453Z" fill="white"/>
<path d="M147.655 31.6529C149.38 31.5474 151.092 32.019 152.52 32.9937C153.689 33.9146 154.539 35.1792 154.952 36.6089C155.437 38.2306 155.675 39.9163 155.657 41.6089V53.6631C155.666 53.97 155.612 54.2753 155.499 54.5606C155.386 54.8459 155.215 55.1049 154.998 55.3218C154.788 55.536 154.537 55.7054 154.259 55.8189C153.982 55.9324 153.684 55.9877 153.384 55.982C153.077 55.9908 152.771 55.9367 152.486 55.8233C152.201 55.7099 151.942 55.5394 151.724 55.3223C151.507 55.1052 151.337 54.8459 151.223 54.5606C151.11 54.2752 151.056 53.97 151.065 53.6631V41.6138C151.077 40.6341 150.931 39.6592 150.632 38.7261C150.366 37.8938 149.85 37.1634 149.155 36.6348C148.284 36.0527 147.246 35.772 146.2 35.835C145.094 35.8171 144.003 36.093 143.039 36.6348C142.151 37.1241 141.413 37.8464 140.904 38.7237C140.395 39.6009 140.135 40.5999 140.152 41.6138V53.6631C140.161 53.97 140.107 54.2753 139.994 54.5606C139.881 54.8459 139.71 55.1049 139.493 55.3218C139.283 55.536 139.032 55.7054 138.754 55.8189C138.477 55.9324 138.179 55.9877 137.879 55.982C137.572 55.9908 137.267 55.9367 136.981 55.8233C136.696 55.7099 136.437 55.5394 136.22 55.3223C136.002 55.1052 135.832 54.8459 135.719 54.5606C135.605 54.2752 135.551 53.97 135.56 53.6631V24.6538C135.551 24.3468 135.604 24.0414 135.718 23.7559C135.831 23.4704 136.002 23.2109 136.219 22.9937C136.436 22.7765 136.695 22.606 136.981 22.4927C137.266 22.3794 137.572 22.3259 137.879 22.335C138.179 22.3291 138.476 22.3843 138.754 22.4976C139.031 22.6109 139.283 22.7797 139.493 22.9937C139.71 23.2109 139.88 23.4704 139.994 23.7559C140.107 24.0413 140.161 24.3468 140.152 24.6538V37.063L139.334 37.5171C139.581 36.7839 139.941 36.0935 140.402 35.4717C140.928 34.7481 141.556 34.105 142.267 33.562C143.02 32.9802 143.855 32.5126 144.745 32.1748C145.675 31.8232 146.661 31.6463 147.655 31.6529V31.6529Z" fill="white"/>
<path d="M161.658 32.3348H172.343C172.625 32.3298 172.905 32.3815 173.166 32.4871C173.428 32.5928 173.666 32.7501 173.865 32.9495C174.065 33.149 174.222 33.3867 174.327 33.6483C174.433 33.9098 174.485 34.1895 174.48 34.4715C174.489 34.7505 174.438 35.0285 174.333 35.2869C174.227 35.5453 174.068 35.7784 173.867 35.9715C173.665 36.1662 173.426 36.3188 173.164 36.4202C172.903 36.5217 172.624 36.5704 172.343 36.5628H161.658C161.376 36.5678 161.096 36.5161 160.834 36.4105C160.573 36.3049 160.335 36.1475 160.136 35.9481C159.936 35.7486 159.779 35.5109 159.673 35.2493C159.568 34.9878 159.516 34.7076 159.521 34.4256C159.512 34.1465 159.562 33.8686 159.668 33.6102C159.774 33.3517 159.933 33.1186 160.135 32.9256C160.337 32.7309 160.575 32.5784 160.837 32.4769C161.098 32.3754 161.378 32.3272 161.658 32.3348V32.3348ZM166.432 26.4237C166.736 26.4132 167.038 26.4667 167.32 26.5804C167.602 26.6941 167.857 26.8655 168.069 27.0838C168.28 27.3039 168.446 27.564 168.555 27.849C168.664 28.1339 168.716 28.4375 168.706 28.7425V49.8426C168.686 50.2978 168.78 50.7511 168.979 51.161C169.136 51.473 169.403 51.7155 169.729 51.8426C170.041 51.9632 170.372 52.025 170.706 52.0247C171.011 52.0309 171.315 51.9686 171.593 51.8426C171.886 51.714 172.205 51.6522 172.525 51.661C172.718 51.6671 172.907 51.7148 173.08 51.8011C173.252 51.8874 173.404 52.0103 173.525 52.161C173.844 52.5409 174.007 53.0281 173.98 53.5238C173.968 53.9003 173.851 54.2659 173.642 54.5794C173.433 54.8929 173.141 55.1417 172.798 55.2977C172.025 55.7478 171.146 55.9834 170.252 55.9798C169.643 55.973 169.036 55.9271 168.433 55.8426C167.721 55.7471 167.034 55.5159 166.41 55.161C165.708 54.746 165.14 54.1387 164.773 53.411C164.279 52.3525 164.053 51.189 164.114 50.0228V28.7425C164.105 28.4337 164.161 28.1264 164.279 27.8406C164.396 27.5549 164.572 27.2972 164.796 27.0838C165.011 26.8701 165.266 26.7016 165.547 26.5882C165.828 26.4749 166.129 26.4189 166.432 26.4237V26.4237Z" fill="white"/>
<path d="M30.1228 26.3911C30.2457 26.3583 30.361 26.3015 30.4619 26.2241C30.5629 26.1467 30.6476 26.0501 30.7112 25.9399C30.7748 25.8298 30.8162 25.7081 30.8328 25.582C30.8494 25.4559 30.8408 25.3279 30.8079 25.2051C30.229 23.0213 28.85 21.135 26.9448 19.9209C27.2874 19.1246 27.4637 18.2667 27.4629 17.3999C27.4548 17.1484 27.3492 16.9099 27.1685 16.7349C26.9877 16.5598 26.746 16.4619 26.4944 16.4619C26.2428 16.4619 26.0011 16.5598 25.8203 16.7349C25.6396 16.9099 25.534 17.1484 25.5259 17.3999C25.5246 18.5808 25.055 19.7129 24.22 20.5479C23.385 21.3829 22.2529 21.8527 21.072 21.854C20.8205 21.8621 20.582 21.9677 20.407 22.1484C20.232 22.3292 20.134 22.5707 20.134 22.8223C20.134 23.0739 20.232 23.3158 20.407 23.4966C20.582 23.6773 20.8205 23.7829 21.072 23.791C21.9925 23.7911 22.902 23.5921 23.7383 23.2075C24.5746 22.8229 25.3179 22.2618 25.917 21.563C27.4066 22.5175 28.4842 23.9958 28.937 25.7061C29.0036 25.9541 29.1658 26.1655 29.3882 26.2939C29.6106 26.4224 29.8747 26.4574 30.1228 26.3911V26.3911Z" fill="#A0CBFA"/>
</svg>
