<svg width="84" height="94" viewBox="0 0 84 94" fill="none" xmlns="http://www.w3.org/2000/svg">
<path d="M83.1561 16.7C83.0607 15.5707 82.5434 14.5189 81.7072 13.754C80.871 12.9892 79.7773 12.5675 78.644 12.573H66.9241V10.8459H67.1531C67.9577 10.8449 68.729 10.5249 69.298 9.95593C69.8669 9.38699 70.187 8.61564 70.188 7.81104V3.59998C70.187 2.79537 69.8669 2.02402 69.298 1.45508C68.729 0.886134 67.9577 0.566 67.1531 0.564941H32.6531C32.2926 0.564941 31.947 0.708151 31.6921 0.963013C31.4372 1.21787 31.294 1.56352 31.294 1.92395C31.294 2.28438 31.4372 2.63015 31.6921 2.88501C31.947 3.13987 32.2926 3.28296 32.6531 3.28296H67.1531C67.2371 3.28322 67.3175 3.31671 67.3769 3.3761C67.4363 3.43549 67.4698 3.51598 67.47 3.59998V7.80798C67.4698 7.89198 67.4363 7.97247 67.3769 8.03186C67.3175 8.09125 67.2371 8.12474 67.1531 8.125H16.345C16.261 8.12474 16.1804 8.09135 16.1208 8.03198C16.0613 7.97262 16.0276 7.89207 16.0271 7.80798V3.59998C16.0273 3.51581 16.0609 3.43515 16.1205 3.37573C16.1801 3.31631 16.2609 3.28296 16.345 3.28296H26.287C26.6475 3.28296 26.9931 3.13987 27.248 2.88501C27.5029 2.63015 27.646 2.28438 27.646 1.92395C27.646 1.56352 27.5029 1.21787 27.248 0.963013C26.9931 0.708151 26.6475 0.564941 26.287 0.564941H16.345C15.5403 0.565735 14.7687 0.88574 14.1995 1.45471C13.6303 2.02368 13.3101 2.7952 13.309 3.59998V7.80798C13.3101 8.61276 13.6303 9.38427 14.1995 9.95325C14.7687 10.5222 15.5403 10.8422 16.345 10.843H16.573V12.5699H4.85304C3.7198 12.5644 2.62608 12.9861 1.78987 13.751C0.953653 14.5158 0.43635 15.5678 0.341046 16.697C0.0565883 22.051 0.860092 27.4072 2.70305 32.442C5.44605 39.863 11.742 49.342 26.167 53.059C28.513 54.9148 31.1714 56.3372 34.017 57.259L34.702 58.3879C36.015 60.5952 36.6984 63.1199 36.6781 65.688C36.6815 67.2796 36.4234 68.8611 35.914 70.369L34.964 73.1689H31.8C30.2409 73.1708 28.7461 73.7911 27.6436 74.8936C26.5411 75.9961 25.9209 77.4909 25.919 79.05V81.897H20.972C20.3009 81.898 19.6576 82.1653 19.1832 82.6399C18.7087 83.1145 18.4418 83.7578 18.4411 84.429V90.812C18.4418 91.483 18.7088 92.1263 19.1832 92.6008C19.6577 93.0753 20.301 93.3422 20.972 93.343H62.5171C63.1882 93.3425 63.8316 93.0756 64.3061 92.6011C64.7807 92.1265 65.0475 91.4831 65.048 90.812V84.429C65.0475 83.7578 64.7807 83.1142 64.3062 82.6395C63.8317 82.1648 63.1883 81.8978 62.5171 81.897H57.571V79.05C57.5692 77.4907 56.9488 75.9957 55.8461 74.8932C54.7434 73.7907 53.2484 73.1705 51.6891 73.1689H48.529L47.5791 70.369C47.0696 68.8611 46.8115 67.2796 46.815 65.688C46.7951 63.1198 47.4788 60.5951 48.792 58.3879L49.475 57.259C52.3212 56.3376 54.98 54.9152 57.326 53.059C71.751 49.34 78.0461 39.859 80.7911 32.442C82.6334 27.407 83.4365 22.0509 83.152 16.697L83.1561 16.7ZM17.076 38.3199C14.4868 35.8671 12.5015 32.8475 11.276 29.498C10.3322 26.9671 9.72895 24.3219 9.48204 21.632H16.576V33.3C16.5746 34.9849 16.7421 36.6656 17.076 38.317V38.3199ZM5.25206 31.502C3.54127 26.8471 2.79283 21.8936 3.05204 16.941C3.08975 16.4901 3.2959 16.0699 3.62947 15.7642C3.96303 15.4584 4.39953 15.2894 4.85203 15.291H16.572V18.915H9.36503C9.00131 18.9154 8.64167 18.9916 8.30909 19.1389C7.97652 19.2862 7.67835 19.5012 7.43364 19.7703C7.18892 20.0394 7.00305 20.3566 6.88792 20.7017C6.77279 21.0467 6.73097 21.4119 6.76506 21.774C7.02903 24.7449 7.69129 27.6667 8.73405 30.4611C10.5653 35.5476 13.9826 39.911 18.482 42.908C19.3549 45.0153 20.5109 46.9938 21.918 48.7889C18.0742 47.2528 14.6008 44.9172 11.7281 41.9369C8.85534 38.9566 6.64892 35.3996 5.25505 31.502H5.25206ZM62.334 84.615V90.625H21.163V84.615H62.334ZM51.693 75.887C52.5317 75.888 53.3357 76.2217 53.9288 76.8146C54.5219 77.4075 54.8557 78.2114 54.857 79.05V81.897H28.641V79.05C28.6421 78.2115 28.9757 77.4075 29.5686 76.8146C30.1616 76.2216 30.9655 75.888 31.804 75.887H51.693ZM45.009 71.2419L45.662 73.1689H37.8341L38.488 71.2419C39.0926 69.4528 39.3993 67.5765 39.396 65.688C39.4077 63.0739 38.8143 60.4925 37.662 58.146C40.3683 58.59 43.1288 58.59 45.835 58.146C44.6833 60.4927 44.0899 63.0739 44.1011 65.688C44.0978 67.5765 44.4045 69.4528 45.009 71.2419V71.2419ZM41.749 55.761C35.7949 55.7541 30.0866 53.3859 25.8764 49.1757C21.6662 44.9655 19.2979 39.2571 19.291 33.303V10.8459H64.206V33.3C64.1994 39.2541 61.8314 44.9623 57.6213 49.1725C53.4113 53.3827 47.7031 55.7512 41.749 55.7581V55.761ZM78.2491 31.502C76.8549 35.3996 74.6483 38.9565 71.7756 41.9369C68.9029 44.9173 65.4297 47.2533 61.586 48.79C62.9947 46.9907 64.1523 45.0081 65.027 42.897C68.8617 40.3549 71.9163 36.7991 73.8511 32.625C74.0054 32.2992 74.024 31.9254 73.9028 31.5858C73.7815 31.2463 73.5304 30.9688 73.2046 30.8145C72.8788 30.6601 72.5049 30.6416 72.1654 30.7628C71.8259 30.8841 71.5484 31.1352 71.394 31.4611C70.1885 34.0454 68.5014 36.3763 66.423 38.329C66.7596 36.6748 66.9288 34.991 66.928 33.303V21.6331H74.0281C73.8936 23.0203 73.6702 24.3974 73.3591 25.756C73.2782 26.1073 73.3401 26.4763 73.5313 26.7819C73.7225 27.0875 74.0272 27.3046 74.3785 27.3855C74.7298 27.4664 75.0989 27.4045 75.4045 27.2133C75.7101 27.0221 75.9272 26.7172 76.008 26.366C76.3542 24.8532 76.6 23.3192 76.7441 21.774C76.7782 21.4119 76.7363 21.0467 76.6211 20.7017C76.506 20.3566 76.3201 20.0394 76.0754 19.7703C75.8307 19.5012 75.5326 19.2862 75.2 19.1389C74.8674 18.9916 74.5078 18.9154 74.144 18.915H66.9371V15.291H78.657C79.1095 15.2894 79.5461 15.4584 79.8796 15.7642C80.2132 16.0699 80.4193 16.4901 80.457 16.941C80.715 21.8935 79.9667 26.8468 78.2571 31.502H78.2491Z" fill="#A0CBFA"/>
<path d="M50.685 26.9611L46.785 26.395C46.7014 26.3829 46.6221 26.3506 46.5538 26.3009C46.4855 26.2512 46.4303 26.1857 46.393 26.11L44.65 22.579C44.3824 22.0373 43.9686 21.5813 43.4555 21.2625C42.9423 20.9436 42.3502 20.7745 41.746 20.7745C41.1418 20.7745 40.5497 20.9436 40.0365 21.2625C39.5234 21.5813 39.1096 22.0373 38.842 22.579L37.099 26.11C37.0615 26.1858 37.0061 26.2514 36.9377 26.301C36.8692 26.3507 36.7897 26.3829 36.706 26.395L32.806 26.9611C32.2077 27.0475 31.6454 27.2996 31.1829 27.689C30.7204 28.0783 30.3761 28.5892 30.1888 29.1641C30.0015 29.7389 29.9788 30.3546 30.1232 30.9417C30.2676 31.5287 30.5734 32.0636 31.006 32.486L33.826 35.234C33.8866 35.2931 33.9319 35.3661 33.958 35.4465C33.9841 35.527 33.9903 35.6126 33.976 35.696L33.311 39.577C33.2085 40.1728 33.2748 40.7854 33.5025 41.3455C33.7301 41.9055 34.11 42.3906 34.5991 42.7458C35.0882 43.1011 35.6671 43.3124 36.27 43.3557C36.873 43.399 37.4761 43.2727 38.011 42.991L41.496 41.1591C41.5708 41.1196 41.654 41.099 41.7385 41.099C41.823 41.099 41.9062 41.1196 41.981 41.1591L45.467 42.991C46.0021 43.2719 46.605 43.3977 47.2078 43.354C47.8105 43.3103 48.389 43.0989 48.8779 42.7437C49.3668 42.3884 49.7467 41.9035 49.9745 41.3438C50.2022 40.784 50.2689 40.1717 50.167 39.576L49.5 35.696C49.4859 35.6126 49.4922 35.5271 49.5183 35.4467C49.5445 35.3662 49.5896 35.2932 49.65 35.234L52.47 32.486C52.9025 32.064 53.2084 31.5294 53.353 30.9427C53.4977 30.3561 53.4754 29.7406 53.2887 29.1659C53.102 28.5912 52.7582 28.0802 52.2964 27.6906C51.8345 27.3009 51.2729 27.0483 50.675 26.9611H50.685ZM50.585 30.54L47.765 33.288C47.3892 33.6547 47.1081 34.1073 46.9459 34.6067C46.7837 35.1061 46.7453 35.6375 46.834 36.155L47.499 40.036C47.5158 40.1319 47.5053 40.2306 47.4688 40.3208C47.4322 40.411 47.3711 40.4893 47.2924 40.5465C47.2136 40.6037 47.1203 40.6376 47.0232 40.6444C46.9261 40.6512 46.829 40.6306 46.743 40.585L43.258 38.7531C42.7933 38.5087 42.2761 38.381 41.751 38.381C41.2259 38.381 40.7087 38.5087 40.244 38.7531L36.758 40.585C36.672 40.6306 36.5749 40.6512 36.4778 40.6444C36.3807 40.6376 36.2874 40.6037 36.2086 40.5465C36.1299 40.4893 36.0687 40.411 36.0322 40.3208C35.9957 40.2306 35.9852 40.1319 36.002 40.036L36.668 36.155C36.7567 35.6374 36.7182 35.1059 36.5559 34.6064C36.3935 34.107 36.1121 33.6545 35.736 33.288L32.916 30.54C32.8466 30.472 32.7977 30.386 32.7745 30.2916C32.7514 30.1973 32.7551 30.0984 32.7851 30.006C32.8152 29.9136 32.8703 29.8314 32.9445 29.7687C33.0187 29.706 33.1089 29.6652 33.205 29.651L37.105 29.085C37.6247 29.0094 38.1183 28.8087 38.5431 28.5C38.968 28.1913 39.3115 27.7839 39.544 27.313L41.286 23.782C41.3292 23.695 41.3959 23.6218 41.4785 23.5706C41.5611 23.5194 41.6563 23.4922 41.7535 23.4922C41.8507 23.4922 41.9459 23.5194 42.0285 23.5706C42.1111 23.6218 42.1778 23.695 42.221 23.782L43.963 27.313C44.1954 27.784 44.5389 28.1914 44.9638 28.5001C45.3887 28.8088 45.8823 29.0095 46.402 29.085L50.302 29.651C50.3982 29.6651 50.4885 29.7058 50.5628 29.7684C50.6371 29.8311 50.6925 29.9132 50.7226 30.0056C50.7527 30.098 50.7565 30.197 50.7334 30.2914C50.7103 30.3858 50.6614 30.472 50.592 30.54H50.585Z" fill="#A0CBFA"/>
</svg>
