<svg width="73" height="84" viewBox="0 0 73 84" fill="none" xmlns="http://www.w3.org/2000/svg">
<path d="M71.9 12.106C71.8051 11.2083 71.388 10.3755 70.7261 9.76172C70.0642 9.14797 69.2022 8.79487 68.3 8.76794C52.611 8.32094 42.223 3.081 38.485 0.848999C37.9069 0.50299 37.2458 0.320312 36.572 0.320312C35.8983 0.320312 35.2371 0.50299 34.659 0.848999C30.2722 3.37445 25.5586 5.28408 20.651 6.52405C20.3378 6.6068 20.0702 6.81058 19.9073 7.09058C19.7443 7.37057 19.6992 7.70375 19.782 8.01697C19.8647 8.33019 20.0685 8.59777 20.3485 8.76074C20.6285 8.92371 20.9618 8.96873 21.275 8.88599C26.4032 7.58716 31.3281 5.58844 35.911 2.94604C36.1107 2.82627 36.3392 2.76294 36.572 2.76294C36.8049 2.76294 37.0333 2.82627 37.233 2.94604C41.133 5.27604 51.968 10.746 68.233 11.209C68.5435 11.2175 68.8405 11.3382 69.069 11.5487C69.2974 11.7592 69.4421 12.0452 69.476 12.354C70.016 17.654 70.865 31.527 67.076 45.795C65.2217 53.2285 61.9104 60.2199 57.334 66.364C52.1125 73.1596 45.0747 78.339 37.034 81.304C36.7389 81.416 36.413 81.416 36.118 81.304C28.0775 78.3385 21.0399 73.1592 15.818 66.364C11.2424 60.2194 7.93111 53.2282 6.07598 45.795C2.28398 31.527 3.13301 17.656 3.67601 12.354C3.70996 12.0452 3.85451 11.7592 4.083 11.5487C4.31149 11.3382 4.60845 11.2175 4.91899 11.209C8.50988 11.1091 12.0887 10.7474 15.627 10.127C15.9395 10.0637 16.2149 9.88092 16.3945 9.61743C16.574 9.35395 16.6435 9.03066 16.588 8.71667C16.5325 8.40269 16.3565 8.1228 16.0976 7.93677C15.8386 7.75074 15.5173 7.67329 15.202 7.72095C11.7811 8.32135 8.32086 8.67128 4.84899 8.76794C3.94671 8.79487 3.08476 9.14797 2.42284 9.76172C1.76092 10.3755 1.34391 11.2083 1.24901 12.106C0.694012 17.542 -0.175004 31.766 3.721 46.421C5.65742 54.1671 9.11253 61.4516 13.886 67.8521C19.3824 75.0088 26.7914 80.4645 35.257 83.589C36.1088 83.9117 37.0492 83.9117 37.901 83.589C46.3666 80.4645 53.7756 75.0088 59.272 67.8521C64.0453 61.4514 67.5008 54.167 69.438 46.421C73.333 31.766 72.464 17.542 71.909 12.106H71.9Z" fill="#A0CBFA"/>
<path d="M8.23601 17.4919C7.33644 26.9011 8.00178 36.3944 10.205 45.5861C11.7354 51.934 14.4924 57.9214 18.321 63.2111C22.6632 69.0522 28.6052 73.5095 35.428 76.0439C36.1618 76.322 36.9721 76.322 37.706 76.0439C44.5289 73.5102 50.471 69.0531 54.813 63.212C58.6415 57.9223 61.3986 51.935 62.929 45.587C65.1322 36.3954 65.7975 26.9022 64.898 17.493C64.8161 16.7187 64.4562 16.0004 63.8851 15.4712C63.3139 14.942 62.5703 14.6378 61.792 14.615C49.381 14.261 41.171 10.115 38.217 8.35596C37.7185 8.05711 37.1482 7.89929 36.567 7.89929C35.9858 7.89929 35.4155 8.05711 34.917 8.35596C31.963 10.119 23.752 14.261 11.341 14.615C10.5627 14.6378 9.81904 14.942 9.24791 15.4712C8.67678 16.0004 8.3169 16.7187 8.23497 17.493L8.23601 17.4919ZM36.17 10.451C36.2901 10.3797 36.4273 10.3419 36.567 10.3419C36.7067 10.3419 36.8439 10.3797 36.964 10.451C40.082 12.313 48.737 16.685 61.723 17.051C61.909 17.0557 62.087 17.1277 62.224 17.2537C62.361 17.3796 62.4477 17.551 62.468 17.736C63.3422 26.8575 62.6985 36.061 60.563 44.972C56.813 59.537 48.832 69.22 36.842 73.755C36.6648 73.8221 36.4692 73.8221 36.292 73.755C24.303 69.22 16.321 59.537 12.571 44.972C10.4377 36.0606 9.79569 26.8573 10.671 17.736C10.6913 17.551 10.7779 17.3796 10.9149 17.2537C11.0519 17.1277 11.23 17.0557 11.416 17.051C24.402 16.681 33.057 12.309 36.175 10.451H36.17Z" fill="#A0CBFA"/>
<path d="M36.567 57.638C39.3187 57.635 42.0297 56.973 44.4731 55.7073C46.9165 54.4416 49.0212 52.6091 50.611 50.3631C50.798 50.0986 50.8722 49.7707 50.8175 49.4516C50.7627 49.1324 50.5834 48.848 50.3189 48.661C50.0545 48.4741 49.7267 48.3997 49.4075 48.4545C49.0883 48.5092 48.804 48.6886 48.617 48.953C46.4993 51.9435 43.3395 54.0335 39.7589 54.8123C36.1783 55.591 32.4359 55.002 29.2675 53.1613C26.0991 51.3205 23.7339 48.361 22.637 44.8648C21.5401 41.3685 21.7907 37.5883 23.3398 34.2675C24.8888 30.9467 27.624 28.3255 31.0078 26.9192C34.3915 25.513 38.1789 25.4235 41.6253 26.6682C45.0718 27.913 47.9279 30.4019 49.6321 33.6458C51.3364 36.8897 51.7654 40.6538 50.835 44.198C50.7529 44.5114 50.7987 44.8445 50.9622 45.1242C51.1257 45.4038 51.3936 45.6069 51.7069 45.689C52.0203 45.7711 52.3535 45.7253 52.6331 45.5618C52.9127 45.3983 53.1159 45.1304 53.198 44.817C54.1108 41.346 53.9145 37.6763 52.6367 34.3224C51.3589 30.9685 49.0636 28.0986 46.0725 26.1149C43.0815 24.1312 39.5447 23.1332 35.9579 23.2609C32.3711 23.3885 28.9141 24.6354 26.0716 26.8267C23.2292 29.018 21.1437 32.0439 20.1075 35.4801C19.0713 38.9164 19.1364 42.5907 20.2937 45.9881C21.4509 49.3854 23.6423 52.3355 26.5606 54.4247C29.479 56.5139 32.9779 57.6375 36.567 57.638Z" fill="#A0CBFA"/>
<path d="M42.9721 31.8691C42.4706 31.8881 41.978 32.0062 41.5225 32.2166C41.0669 32.427 40.6576 32.7255 40.3181 33.095L34.183 39.7381L32.6641 38.271C31.9354 37.5668 30.9567 37.1808 29.9435 37.198C28.9302 37.2153 27.9653 37.6344 27.2611 38.3631C26.5568 39.0918 26.1708 40.0703 26.1881 41.0835C26.2053 42.0968 26.6244 43.0617 27.3531 43.766L31.683 47.9511C32.3945 48.6415 33.3476 49.0266 34.3391 49.0241H34.4481C34.957 49.0085 35.4578 48.8919 35.9213 48.6811C36.3848 48.4703 36.8019 48.1695 37.1481 47.7961L45.9341 38.281C46.4471 37.7258 46.7839 37.0309 46.9019 36.2842C47.0198 35.5375 46.9136 34.7726 46.5967 34.0862C46.2799 33.3999 45.7665 32.823 45.1216 32.4285C44.4768 32.034 43.7294 31.8396 42.9741 31.87L42.9721 31.8691ZM44.1381 36.622L35.3511 46.1391C35.2264 46.2737 35.0761 46.3821 34.9089 46.4579C34.7418 46.5338 34.5613 46.5755 34.3778 46.5807C34.1944 46.5859 34.0117 46.5545 33.8406 46.4883C33.6694 46.4221 33.5132 46.3223 33.381 46.195L29.0511 42.01C28.7968 41.754 28.653 41.4086 28.6505 41.0478C28.648 40.687 28.7871 40.3395 29.0378 40.08C29.2885 39.8205 29.6309 39.6697 29.9916 39.6598C30.3523 39.6499 30.7025 39.7817 30.967 40.027L33.3851 42.3631C33.6242 42.5859 33.9414 42.7056 34.2681 42.6964C34.5949 42.6873 34.9048 42.5499 35.131 42.314L42.1121 34.7531C43.2921 33.4751 45.3531 35.306 44.1381 36.622Z" fill="#A0CBFA"/>
</svg>
