<svg width="50" height="50" viewBox="0 0 24 24" fill="none" xmlns="http://www.w3.org/2000/svg">
<path d="M12 5C15.866 5 19 8.13401 19 12C19 15.866 15.866 19 12 19C8.13401 19 5 15.866 5 12C5 8.13401 8.13401 5 12 5ZM12 7C9.23858 7 7 9.23858 7 12C7 14.7614 9.23858 17 12 17C14.7614 17 17 14.7614 17 12C17 9.23858 14.7614 7 12 7ZM10.5858 9.17157L12 10.586L13.4142 9.17157C13.8047 8.78105 14.4379 8.78105 14.8284 9.17157C15.219 9.5621 15.219 10.1953 14.8284 10.5858L13.414 12L14.8284 13.4142C15.219 13.8047 15.219 14.4379 14.8284 14.8284C14.4379 15.219 13.8047 15.219 13.4142 14.8284L12 13.414L10.5858 14.8284C10.1953 15.219 9.5621 15.219 9.17157 14.8284C8.78105 14.4379 8.78105 13.8047 9.17157 13.4142L10.586 12L9.17157 10.5858C8.78105 10.1953 8.78105 9.5621 9.17157 9.17157C9.5621 8.78105 10.1953 8.78105 10.5858 9.17157Z" fill="#E70000"/>
</svg>
